<svg width="282" height="397" viewBox="0 0 282 397" fill="none" xmlns="http://www.w3.org/2000/svg">
<path d="M9.5 15.5V11.5C9.5 10.9477 9.94772 10.5 10.5 10.5H13.5C13.8148 10.5 14.1111 10.6482 14.3 10.9L15.2 12.1C15.3889 12.3518 15.6852 12.5 16 12.5H25.5C26.0523 12.5 26.5 12.9477 26.5 13.5V15.5M9.5 15.5V24.5C9.5 25.0523 9.94772 25.5 10.5 25.5H25.5C26.0523 25.5 26.5 25.0523 26.5 24.5V15.5M9.5 15.5H18H26.5" stroke="black"/>
<path d="M41.42 13.244V14.84H42.872V13.244H41.42ZM42.764 16.4H39.668V17.36H41.684V22.04H39.308V23H44.588V22.04H42.764V16.4ZM50.4278 16.28C49.3838 16.28 48.5438 16.868 47.8718 17.948L47.6678 16.4H46.8638V23H47.9318V18.728C48.8198 17.6 49.3718 17.204 50.0798 17.204C50.8478 17.204 51.1598 17.624 51.1598 18.416V23H52.2278V18.272C52.2278 16.928 51.5438 16.28 50.4278 16.28ZM58.8116 17.324C58.3796 16.652 57.7196 16.28 56.8436 16.28C55.2476 16.28 54.3356 17.552 54.3356 19.76C54.3356 21.908 55.2476 23.12 56.8436 23.12C57.7676 23.12 58.4636 22.688 58.8956 21.872L59.0756 23H59.8796V14.12H58.8116V17.324ZM57.1316 22.16C55.9196 22.16 55.4636 21.44 55.4636 19.64C55.4636 17.9 55.9196 17.24 57.1316 17.24C58.3436 17.24 58.8116 17.96 58.8116 19.76C58.8116 21.5 58.3436 22.16 57.1316 22.16ZM66.4513 20.684C65.5633 21.788 65.0113 22.196 64.3033 22.196C63.5473 22.196 63.2353 21.776 63.2353 20.984V16.4H62.1553V21.128C62.1553 22.472 62.8393 23.12 63.9553 23.12C65.0113 23.12 65.8513 22.52 66.5113 21.452L66.7153 23H67.5313V16.4H66.4513V20.684ZM70.0591 22.628C70.8271 23 71.7151 23.12 72.4471 23.12C74.1991 23.12 75.0511 22.304 75.0511 21.176C75.0511 18.692 71.1391 19.844 71.1391 18.176C71.1391 17.648 71.5231 17.276 72.6871 17.276C73.3111 17.276 73.9111 17.36 74.7631 17.732V16.712C74.0551 16.424 73.2271 16.28 72.5311 16.28C70.8751 16.28 70.0471 17.12 70.0471 18.272C70.0471 20.756 73.9351 19.688 73.9351 21.248C73.9351 21.764 73.4911 22.124 72.3511 22.124C71.5711 22.124 70.8391 21.956 70.0591 21.596V22.628ZM82.7869 16.4H79.9069V14.924H79.0789L78.8269 16.4L77.3029 16.664V17.36H78.8269V20.924C78.8269 22.22 79.5829 23.12 81.2149 23.12C81.7669 23.12 82.3069 23.012 82.7869 22.844V21.812C82.3309 22.016 81.8149 22.124 81.3229 22.124C80.2789 22.124 79.9069 21.668 79.9069 20.78V17.36H82.7869V16.4ZM91.0027 16.04C89.8387 16.04 88.5187 16.712 87.7747 17.708L87.5707 16.4H85.2787V17.36H86.7547V22.04H84.9427V23H90.4267V22.04H87.8347V18.356C88.7227 17.624 89.8387 17.228 91.0027 17.228V16.04ZM95.1505 13.244V14.84H96.6025V13.244H95.1505ZM96.4945 16.4H93.3985V17.36H95.4145V22.04H93.0385V23H98.3185V22.04H96.4945V16.4ZM105.694 20.972V18.38C105.694 17.072 104.854 16.28 103.39 16.28C102.658 16.28 101.83 16.472 101.05 16.808V17.84C101.818 17.456 102.442 17.276 103.258 17.276C104.182 17.276 104.614 17.672 104.614 18.488V19.052C101.566 19.064 100.462 19.892 100.462 21.32C100.462 22.448 101.206 23.12 102.466 23.12C103.582 23.12 104.314 22.64 104.758 21.692L104.998 23H106.066L105.694 20.972ZM102.718 22.124C101.95 22.124 101.578 21.764 101.578 21.128C101.578 20.144 102.466 19.784 104.614 19.772V20.3C104.614 21.344 103.858 22.124 102.718 22.124ZM112.59 22.124C111.594 22.124 111.15 21.476 111.15 20.276V14.12H107.73V15.08H110.07V20.372C110.07 22.22 110.922 23.12 112.398 23.12C112.998 23.12 113.574 22.976 114.114 22.712V21.668C113.634 21.968 113.094 22.124 112.59 22.124ZM115.394 23.888H121.814V23H115.394V23.888ZM128.158 16.28C127.522 16.28 127.03 16.616 126.682 17.276C126.502 16.58 126.106 16.28 125.602 16.28C125.014 16.28 124.462 16.7 124.078 17.54L123.874 16.4H123.106V23H124.126V18.2C124.438 17.528 124.786 17.264 125.134 17.264C125.566 17.264 125.782 17.672 125.782 18.44V23H126.802V18.308C126.802 18.2 126.802 18.092 126.79 17.996C127.066 17.432 127.366 17.204 127.75 17.204C128.29 17.204 128.458 17.636 128.458 18.44V23H129.478V18.308C129.478 16.88 129.022 16.28 128.158 16.28ZM136.877 19.508C136.877 17.444 135.929 16.28 134.141 16.28C132.161 16.28 131.045 17.72 131.045 19.904C131.045 22.004 132.173 23.12 134.009 23.12C134.837 23.12 135.653 22.904 136.373 22.484V21.452C135.701 21.872 134.945 22.124 134.117 22.124C132.905 22.124 132.269 21.572 132.173 20.108H136.865C136.877 19.904 136.877 19.724 136.877 19.508ZM134.057 17.276C135.221 17.276 135.665 17.792 135.749 19.184H132.185C132.281 17.792 132.857 17.276 134.057 17.276ZM144.193 16.4H141.313V14.924H140.485L140.233 16.4L138.709 16.664V17.36H140.233V20.924C140.233 22.22 140.989 23.12 142.621 23.12C143.173 23.12 143.713 23.012 144.193 22.844V21.812C143.737 22.016 143.221 22.124 142.729 22.124C141.685 22.124 141.313 21.668 141.313 20.78V17.36H144.193V16.4ZM151.749 20.972V18.38C151.749 17.072 150.909 16.28 149.445 16.28C148.713 16.28 147.885 16.472 147.105 16.808V17.84C147.873 17.456 148.497 17.276 149.313 17.276C150.237 17.276 150.669 17.672 150.669 18.488V19.052C147.621 19.064 146.517 19.892 146.517 21.32C146.517 22.448 147.261 23.12 148.521 23.12C149.637 23.12 150.369 22.64 150.813 21.692L151.053 23H152.121L151.749 20.972ZM148.773 22.124C148.005 22.124 147.633 21.764 147.633 21.128C147.633 20.144 148.521 19.784 150.669 19.772V20.3C150.669 21.344 149.913 22.124 148.773 22.124ZM158.645 22.124C157.649 22.124 157.205 21.476 157.205 20.276V14.12H153.785V15.08H156.125V20.372C156.125 22.22 156.977 23.12 158.453 23.12C159.053 23.12 159.629 22.976 160.169 22.712V21.668C159.689 21.968 159.149 22.124 158.645 22.124ZM161.449 23.888H167.868V23H161.449V23.888ZM172.208 23.12C174.128 23.12 175.232 21.812 175.232 19.508C175.232 17.456 174.236 16.28 172.448 16.28C170.54 16.28 169.436 17.588 169.436 19.88C169.436 21.944 170.432 23.12 172.208 23.12ZM172.328 22.124C171.044 22.124 170.552 21.488 170.552 19.712C170.552 17.936 171.044 17.276 172.328 17.276C173.624 17.276 174.104 17.912 174.104 19.676C174.104 21.452 173.624 22.124 172.328 22.124ZM180.388 16.28C179.524 16.28 178.852 16.676 178.432 17.396V14.12H177.352V22.88C178 23.036 178.732 23.12 179.344 23.12C181.624 23.12 182.8 21.824 182.8 19.568C182.8 17.48 181.924 16.28 180.388 16.28ZM179.356 22.184C179.044 22.184 178.732 22.16 178.432 22.1V19.664C178.432 17.984 178.924 17.24 180.088 17.24C181.204 17.24 181.684 17.9 181.684 19.64C181.684 21.44 181.024 22.184 179.356 22.184ZM188.484 14.84H189.936V13.244H188.484V14.84ZM188.76 17.36V22.184C188.76 23.396 187.812 24.392 185.28 24.392V25.4C188.136 25.4 189.828 24.068 189.828 22.04V16.4H185.28V17.36H188.76ZM198.284 19.508C198.284 17.444 197.336 16.28 195.548 16.28C193.568 16.28 192.452 17.72 192.452 19.904C192.452 22.004 193.58 23.12 195.416 23.12C196.244 23.12 197.06 22.904 197.78 22.484V21.452C197.108 21.872 196.352 22.124 195.524 22.124C194.312 22.124 193.676 21.572 193.58 20.108H198.272C198.284 19.904 198.284 19.724 198.284 19.508ZM195.464 17.276C196.628 17.276 197.072 17.792 197.156 19.184H193.592C193.688 17.792 194.264 17.276 195.464 17.276ZM205.935 18.788C205.935 17.252 204.831 16.28 203.259 16.28C201.363 16.28 200.235 17.588 200.235 19.88C200.235 21.944 201.363 23.12 203.199 23.12C204.039 23.12 204.855 22.892 205.563 22.46V21.416C204.795 21.932 204.159 22.124 203.343 22.124C201.891 22.124 201.351 21.452 201.351 19.712C201.351 17.924 201.843 17.24 203.235 17.24C204.351 17.24 204.819 17.672 204.819 18.788H205.935ZM213.275 16.4H210.395V14.924H209.567L209.315 16.4L207.791 16.664V17.36H209.315V20.924C209.315 22.22 210.071 23.12 211.703 23.12C212.255 23.12 212.795 23.012 213.275 22.844V21.812C212.819 22.016 212.303 22.124 211.811 22.124C210.767 22.124 210.395 21.668 210.395 20.78V17.36H213.275V16.4ZM215.899 22.628C216.667 23 217.555 23.12 218.287 23.12C220.039 23.12 220.891 22.304 220.891 21.176C220.891 18.692 216.979 19.844 216.979 18.176C216.979 17.648 217.363 17.276 218.527 17.276C219.151 17.276 219.751 17.36 220.603 17.732V16.712C219.895 16.424 219.067 16.28 218.371 16.28C216.715 16.28 215.887 17.12 215.887 18.272C215.887 20.756 219.775 19.688 219.775 21.248C219.775 21.764 219.331 22.124 218.191 22.124C217.411 22.124 216.679 21.956 215.899 21.596V22.628Z" fill="black"/>
<path d="M29.5 45.5V41.5C29.5 40.9477 29.9477 40.5 30.5 40.5H33.5C33.8148 40.5 34.1111 40.6482 34.3 40.9L35.2 42.1C35.3889 42.3518 35.6852 42.5 36 42.5H45.5C46.0523 42.5 46.5 42.9477 46.5 43.5V45.5M29.5 45.5V54.5C29.5 55.0523 29.9477 55.5 30.5 55.5H45.5C46.0523 55.5 46.5 55.0523 46.5 54.5V45.5M29.5 45.5H38H46.5" stroke="black"/>
<path d="M63.724 46.28C63.088 46.28 62.596 46.616 62.248 47.276C62.068 46.58 61.672 46.28 61.168 46.28C60.58 46.28 60.028 46.7 59.644 47.54L59.44 46.4H58.672V53H59.692V48.2C60.004 47.528 60.352 47.264 60.7 47.264C61.132 47.264 61.348 47.672 61.348 48.44V53H62.368V48.308C62.368 48.2 62.368 48.092 62.356 47.996C62.632 47.432 62.932 47.204 63.316 47.204C63.856 47.204 64.024 47.636 64.024 48.44V53H65.044V48.308C65.044 46.88 64.588 46.28 63.724 46.28ZM69.3958 53.12C71.3158 53.12 72.4198 51.812 72.4198 49.508C72.4198 47.456 71.4238 46.28 69.6358 46.28C67.7278 46.28 66.6238 47.588 66.6238 49.88C66.6238 51.944 67.6198 53.12 69.3958 53.12ZM69.5158 52.124C68.2318 52.124 67.7398 51.488 67.7398 49.712C67.7398 47.936 68.2318 47.276 69.5158 47.276C70.8118 47.276 71.2918 47.912 71.2918 49.676C71.2918 51.452 70.8118 52.124 69.5158 52.124ZM78.8116 47.324C78.3796 46.652 77.7196 46.28 76.8436 46.28C75.2476 46.28 74.3356 47.552 74.3356 49.76C74.3356 51.908 75.2476 53.12 76.8436 53.12C77.7676 53.12 78.4636 52.688 78.8956 51.872L79.0756 53H79.8796V44.12H78.8116V47.324ZM77.1316 52.16C75.9196 52.16 75.4636 51.44 75.4636 49.64C75.4636 47.9 75.9196 47.24 77.1316 47.24C78.3436 47.24 78.8116 47.96 78.8116 49.76C78.8116 51.5 78.3436 52.16 77.1316 52.16ZM87.7953 49.508C87.7953 47.444 86.8473 46.28 85.0593 46.28C83.0793 46.28 81.9633 47.72 81.9633 49.904C81.9633 52.004 83.0913 53.12 84.9273 53.12C85.7553 53.12 86.5713 52.904 87.2913 52.484V51.452C86.6193 51.872 85.8633 52.124 85.0353 52.124C83.8233 52.124 83.1873 51.572 83.0913 50.108H87.7833C87.7953 49.904 87.7953 49.724 87.7953 49.508ZM84.9753 47.276C86.1393 47.276 86.5833 47.792 86.6673 49.184H83.1033C83.1993 47.792 83.7753 47.276 84.9753 47.276ZM94.2111 52.124C93.2151 52.124 92.7711 51.476 92.7711 50.276V44.12H89.3511V45.08H91.6911V50.372C91.6911 52.22 92.5431 53.12 94.0191 53.12C94.6191 53.12 95.1951 52.976 95.7351 52.712V51.668C95.2551 51.968 94.7151 52.124 94.2111 52.124ZM97.7349 52.628C98.5029 53 99.3909 53.12 100.123 53.12C101.875 53.12 102.727 52.304 102.727 51.176C102.727 48.692 98.8149 49.844 98.8149 48.176C98.8149 47.648 99.1989 47.276 100.363 47.276C100.987 47.276 101.587 47.36 102.439 47.732V46.712C101.731 46.424 100.903 46.28 100.207 46.28C98.5509 46.28 97.7229 47.12 97.7229 48.272C97.7229 50.756 101.611 49.688 101.611 51.248C101.611 51.764 101.167 52.124 100.027 52.124C99.2469 52.124 98.5149 51.956 97.7349 51.596V52.628Z" fill="black"/>
<path d="M49.5 135.5V131.5C49.5 130.948 49.9477 130.5 50.5 130.5H53.5C53.8148 130.5 54.1111 130.648 54.3 130.9L55.2 132.1C55.3889 132.352 55.6852 132.5 56 132.5H65.5C66.0523 132.5 66.5 132.948 66.5 133.5V135.5M49.5 135.5V144.5C49.5 145.052 49.9477 145.5 50.5 145.5H65.5C66.0523 145.5 66.5 145.052 66.5 144.5V135.5M49.5 135.5H58H66.5" stroke="black"/>
<path d="M84.816 138.956C84.816 137.324 83.772 136.28 82.044 136.28C80.04 136.28 78.888 137.624 78.888 139.88C78.888 141.92 80.004 143.12 81.996 143.12C82.884 143.12 83.7 142.892 84.408 142.46V141.044C83.664 141.512 82.884 141.728 82.128 141.728C80.904 141.728 80.472 141.176 80.472 139.7C80.472 138.2 80.868 137.648 81.996 137.648C82.92 137.648 83.28 137.996 83.28 138.956H84.816ZM89.3958 143.12C91.3758 143.12 92.5398 141.764 92.5398 139.496C92.5398 137.468 91.4718 136.28 89.6358 136.28C87.6678 136.28 86.4918 137.636 86.4918 139.904C86.4918 141.932 87.5598 143.12 89.3958 143.12ZM89.5158 141.728C88.4478 141.728 88.0758 141.2 88.0758 139.7C88.0758 138.2 88.4478 137.672 89.5158 137.672C90.5838 137.672 90.9558 138.2 90.9558 139.7C90.9558 141.2 90.5838 141.728 89.5158 141.728ZM98.0796 136.28C97.1676 136.28 96.3996 136.76 95.7996 137.6L95.6076 136.4H94.3956V143H95.9196V138.632C96.5436 137.864 96.9636 137.576 97.5636 137.576C98.2356 137.576 98.5116 137.936 98.5116 138.644V143H100.024V138.392C100.024 137 99.2916 136.28 98.0796 136.28ZM102.239 142.604C103.043 142.964 103.943 143.12 104.759 143.12C106.487 143.12 107.519 142.364 107.519 141.068C107.519 138.596 103.775 139.58 103.775 138.296C103.775 137.924 104.075 137.672 105.011 137.672C105.647 137.672 106.415 137.792 107.255 138.128V136.712C106.463 136.424 105.599 136.28 104.867 136.28C103.211 136.28 102.215 137.072 102.215 138.368C102.215 140.804 105.935 139.928 105.935 141.128C105.935 141.488 105.611 141.728 104.615 141.728C103.811 141.728 103.043 141.56 102.239 141.212V142.604ZM115.207 136.4H112.447V134.924H111.211L110.935 136.4L109.555 136.7V137.696H110.935V140.756C110.935 142.076 111.763 143.12 113.527 143.12C114.079 143.12 114.679 143.012 115.207 142.832V141.452C114.727 141.632 114.223 141.728 113.767 141.728C112.795 141.728 112.447 141.332 112.447 140.54V137.696H115.207V136.4ZM123.219 136.016C122.163 136.016 121.023 136.664 120.315 137.648L120.087 136.4H117.639V137.744H118.887V141.656H117.243V143H122.835V141.656H120.399V138.608C121.179 138.02 122.079 137.708 123.219 137.708V136.016ZM129.167 140.768C128.543 141.536 128.123 141.824 127.523 141.824C126.851 141.824 126.575 141.464 126.575 140.756V136.4H125.063V141.008C125.063 142.4 125.795 143.12 127.007 143.12C127.919 143.12 128.687 142.64 129.287 141.8L129.479 143H130.691V136.4H129.167V140.768ZM138.546 138.956C138.546 137.324 137.502 136.28 135.774 136.28C133.77 136.28 132.618 137.624 132.618 139.88C132.618 141.92 133.734 143.12 135.726 143.12C136.614 143.12 137.43 142.892 138.138 142.46V141.044C137.394 141.512 136.614 141.728 135.858 141.728C134.634 141.728 134.202 141.176 134.202 139.7C134.202 138.2 134.598 137.648 135.726 137.648C136.65 137.648 137.01 137.996 137.01 138.956H138.546ZM145.91 136.4H143.15V134.924H141.914L141.638 136.4L140.258 136.7V137.696H141.638V140.756C141.638 142.076 142.466 143.12 144.23 143.12C144.782 143.12 145.382 143.012 145.91 142.832V141.452C145.43 141.632 144.926 141.728 144.47 141.728C143.498 141.728 143.15 141.332 143.15 140.54V137.696H145.91V136.4ZM150.346 132.956V134.84H152.122V132.956H150.346ZM152.062 136.4H148.63V137.744H150.55V141.656H148.234V143H153.826V141.656H152.062V136.4ZM158.478 143.12C160.458 143.12 161.622 141.764 161.622 139.496C161.622 137.468 160.554 136.28 158.718 136.28C156.75 136.28 155.574 137.636 155.574 139.904C155.574 141.932 156.642 143.12 158.478 143.12ZM158.598 141.728C157.53 141.728 157.158 141.2 157.158 139.7C157.158 138.2 157.53 137.672 158.598 137.672C159.666 137.672 160.038 138.2 160.038 139.7C160.038 141.2 159.666 141.728 158.598 141.728ZM167.162 136.28C166.25 136.28 165.482 136.76 164.882 137.6L164.69 136.4H163.478V143H165.002V138.632C165.626 137.864 166.046 137.576 166.646 137.576C167.318 137.576 167.594 137.936 167.594 138.644V143H169.106V138.392C169.106 137 168.374 136.28 167.162 136.28Z" fill="black"/>
<path d="M83.724 106.28C83.088 106.28 82.596 106.616 82.248 107.276C82.068 106.58 81.672 106.28 81.168 106.28C80.58 106.28 80.028 106.7 79.644 107.54L79.44 106.4H78.672V113H79.692V108.2C80.004 107.528 80.352 107.264 80.7 107.264C81.132 107.264 81.348 107.672 81.348 108.44V113H82.368V108.308C82.368 108.2 82.368 108.092 82.356 107.996C82.632 107.432 82.932 107.204 83.316 107.204C83.856 107.204 84.024 107.636 84.024 108.44V113H85.044V108.308C85.044 106.88 84.588 106.28 83.724 106.28ZM89.3958 113.12C91.3158 113.12 92.4198 111.812 92.4198 109.508C92.4198 107.456 91.4238 106.28 89.6358 106.28C87.7278 106.28 86.6238 107.588 86.6238 109.88C86.6238 111.944 87.6198 113.12 89.3958 113.12ZM89.5158 112.124C88.2318 112.124 87.7398 111.488 87.7398 109.712C87.7398 107.936 88.2318 107.276 89.5158 107.276C90.8118 107.276 91.2918 107.912 91.2918 109.676C91.2918 111.452 90.8118 112.124 89.5158 112.124ZM98.8116 107.324C98.3796 106.652 97.7196 106.28 96.8436 106.28C95.2476 106.28 94.3356 107.552 94.3356 109.76C94.3356 111.908 95.2476 113.12 96.8436 113.12C97.7676 113.12 98.4636 112.688 98.8956 111.872L99.0756 113H99.8796V104.12H98.8116V107.324ZM97.1316 112.16C95.9196 112.16 95.4636 111.44 95.4636 109.64C95.4636 107.9 95.9196 107.24 97.1316 107.24C98.3436 107.24 98.8116 107.96 98.8116 109.76C98.8116 111.5 98.3436 112.16 97.1316 112.16ZM107.795 109.508C107.795 107.444 106.847 106.28 105.059 106.28C103.079 106.28 101.963 107.72 101.963 109.904C101.963 112.004 103.091 113.12 104.927 113.12C105.755 113.12 106.571 112.904 107.291 112.484V111.452C106.619 111.872 105.863 112.124 105.035 112.124C103.823 112.124 103.187 111.572 103.091 110.108H107.783C107.795 109.904 107.795 109.724 107.795 109.508ZM104.975 107.276C106.139 107.276 106.583 107.792 106.667 109.184H103.103C103.199 107.792 103.775 107.276 104.975 107.276ZM114.211 112.124C113.215 112.124 112.771 111.476 112.771 110.276V104.12H109.351V105.08H111.691V110.372C111.691 112.22 112.543 113.12 114.019 113.12C114.619 113.12 115.195 112.976 115.735 112.712V111.668C115.255 111.968 114.715 112.124 114.211 112.124ZM117.735 112.628C118.503 113 119.391 113.12 120.123 113.12C121.875 113.12 122.727 112.304 122.727 111.176C122.727 108.692 118.815 109.844 118.815 108.176C118.815 107.648 119.199 107.276 120.363 107.276C120.987 107.276 121.587 107.36 122.439 107.732V106.712C121.731 106.424 120.903 106.28 120.207 106.28C118.551 106.28 117.723 107.12 117.723 108.272C117.723 110.756 121.611 109.688 121.611 111.248C121.611 111.764 121.167 112.124 120.027 112.124C119.247 112.124 118.515 111.956 117.735 111.596V112.628ZM124.691 113.888H131.111V113H124.691V113.888ZM135.15 103.244V104.84H136.602V103.244H135.15ZM136.494 106.4H133.398V107.36H135.414V112.04H133.038V113H138.318V112.04H136.494V106.4ZM144.158 106.28C143.114 106.28 142.274 106.868 141.602 107.948L141.398 106.4H140.594V113H141.662V108.728C142.55 107.6 143.102 107.204 143.81 107.204C144.578 107.204 144.89 107.624 144.89 108.416V113H145.958V108.272C145.958 106.928 145.274 106.28 144.158 106.28ZM153.922 103.988C150.874 103.988 149.758 104.66 149.758 106.52V106.664H148.054V107.588H149.758V112.988H150.826V107.588H153.91V106.664H150.826V106.532C150.826 105.248 151.39 104.996 153.922 104.996V103.988ZM158.478 113.12C160.398 113.12 161.502 111.812 161.502 109.508C161.502 107.456 160.506 106.28 158.718 106.28C156.81 106.28 155.706 107.588 155.706 109.88C155.706 111.944 156.702 113.12 158.478 113.12ZM158.598 112.124C157.314 112.124 156.822 111.488 156.822 109.712C156.822 107.936 157.314 107.276 158.598 107.276C159.894 107.276 160.374 107.912 160.374 109.676C160.374 111.452 159.894 112.124 158.598 112.124ZM165.446 113H167.102V111.224H165.446V113ZM174.753 104.84H176.205V103.244H174.753V104.84ZM175.029 107.36V112.184C175.029 113.396 174.081 114.392 171.549 114.392V115.4C174.405 115.4 176.097 114.068 176.097 112.04V106.4H171.549V107.36H175.029ZM179.141 112.628C179.909 113 180.797 113.12 181.529 113.12C183.281 113.12 184.133 112.304 184.133 111.176C184.133 108.692 180.221 109.844 180.221 108.176C180.221 107.648 180.605 107.276 181.769 107.276C182.393 107.276 182.993 107.36 183.845 107.732V106.712C183.137 106.424 182.309 106.28 181.613 106.28C179.957 106.28 179.129 107.12 179.129 108.272C179.129 110.756 183.017 109.688 183.017 111.248C183.017 111.764 182.573 112.124 181.433 112.124C180.653 112.124 179.921 111.956 179.141 111.596V112.628ZM189.181 113.12C191.101 113.12 192.205 111.812 192.205 109.508C192.205 107.456 191.209 106.28 189.421 106.28C187.513 106.28 186.409 107.588 186.409 109.88C186.409 111.944 187.405 113.12 189.181 113.12ZM189.301 112.124C188.017 112.124 187.525 111.488 187.525 109.712C187.525 107.936 188.017 107.276 189.301 107.276C190.597 107.276 191.077 107.912 191.077 109.676C191.077 111.452 190.597 112.124 189.301 112.124ZM197.889 106.28C196.845 106.28 196.005 106.868 195.333 107.948L195.129 106.4H194.325V113H195.393V108.728C196.281 107.6 196.833 107.204 197.541 107.204C198.309 107.204 198.621 107.624 198.621 108.416V113H199.689V108.272C199.689 106.928 199.005 106.28 197.889 106.28Z" fill="black"/>
<path d="M64.5 103.5V115.5C64.5 116.052 64.0523 116.5 63.5 116.5H52.5C51.9477 116.5 51.5 116.052 51.5 115.5V100.5C51.5 99.9477 51.9477 99.5 52.5 99.5H60M64.5 103.5L60 99.5M64.5 103.5H61C60.4477 103.5 60 103.052 60 102.5V99.5" stroke="black"/>
<path d="M81.72 83.12C83.64 83.12 84.744 81.812 84.744 79.508C84.744 77.456 83.748 76.28 81.96 76.28C80.052 76.28 78.948 77.588 78.948 79.88C78.948 81.944 79.944 83.12 81.72 83.12ZM81.84 82.124C80.556 82.124 80.064 81.488 80.064 79.712C80.064 77.936 80.556 77.276 81.84 77.276C83.136 77.276 83.616 77.912 83.616 79.676C83.616 81.452 83.136 82.124 81.84 82.124ZM89.8998 76.28C89.0358 76.28 88.3638 76.676 87.9438 77.396V74.12H86.8638V82.88C87.5118 83.036 88.2438 83.12 88.8558 83.12C91.1358 83.12 92.3118 81.824 92.3118 79.568C92.3118 77.48 91.4358 76.28 89.8998 76.28ZM88.8678 82.184C88.5558 82.184 88.2438 82.16 87.9438 82.1V79.664C87.9438 77.984 88.4358 77.24 89.5998 77.24C90.7158 77.24 91.1958 77.9 91.1958 79.64C91.1958 81.44 90.5358 82.184 88.8678 82.184ZM97.9956 74.84H99.4476V73.244H97.9956V74.84ZM98.2716 77.36V82.184C98.2716 83.396 97.3236 84.392 94.7916 84.392V85.4C97.6476 85.4 99.3396 84.068 99.3396 82.04V76.4H94.7916V77.36H98.2716ZM101.663 83.888H108.083V83H101.663V83.888ZM109.375 78.572V79.724L115.711 83.048V81.692L110.803 79.148L115.711 76.604V75.248L109.375 78.572ZM120.099 83.12C122.079 83.12 123.243 81.764 123.243 79.496C123.243 77.468 122.175 76.28 120.339 76.28C118.371 76.28 117.195 77.636 117.195 79.904C117.195 81.932 118.263 83.12 120.099 83.12ZM120.219 81.728C119.151 81.728 118.779 81.2 118.779 79.7C118.779 78.2 119.151 77.672 120.219 77.672C121.287 77.672 121.659 78.2 121.659 79.7C121.659 81.2 121.287 81.728 120.219 81.728ZM128.411 76.28C127.607 76.28 127.007 76.628 126.587 77.252V74.12H125.075V82.88C125.747 83.036 126.551 83.12 127.199 83.12C129.659 83.12 130.871 81.812 130.871 79.592C130.871 77.552 129.971 76.28 128.411 76.28ZM127.247 81.776C127.007 81.776 126.791 81.764 126.587 81.728V79.676C126.587 78.188 126.983 77.648 127.955 77.648C128.939 77.648 129.299 78.236 129.299 79.64C129.299 81.212 128.747 81.776 127.247 81.776ZM136.17 74.84H137.934V72.956H136.17V74.84ZM136.362 77.744V82.124C136.362 83.324 135.474 84.056 133.074 84.056V85.424C136.098 85.424 137.886 84.068 137.886 81.932V76.4H133.074V77.744H136.362ZM146.294 79.52C146.294 77.48 145.346 76.28 143.438 76.28C141.35 76.28 140.222 77.732 140.222 79.916C140.222 81.956 141.338 83.12 143.282 83.12C144.11 83.12 145.034 82.916 145.766 82.532V81.176C145.094 81.524 144.242 81.74 143.474 81.74C142.466 81.74 141.95 81.344 141.83 80.264H146.27C146.282 80.024 146.294 79.796 146.294 79.52ZM143.342 77.66C144.242 77.66 144.602 78.032 144.698 79.088H141.83C141.95 78.044 142.406 77.66 143.342 77.66ZM153.898 78.956C153.898 77.324 152.854 76.28 151.126 76.28C149.122 76.28 147.97 77.624 147.97 79.88C147.97 81.92 149.086 83.12 151.078 83.12C151.966 83.12 152.782 82.892 153.49 82.46V81.044C152.746 81.512 151.966 81.728 151.21 81.728C149.986 81.728 149.554 81.176 149.554 79.7C149.554 78.2 149.95 77.648 151.078 77.648C152.002 77.648 152.362 77.996 152.362 78.956H153.898ZM161.262 76.4H158.502V74.924H157.266L156.99 76.4L155.61 76.7V77.696H156.99V80.756C156.99 82.076 157.818 83.12 159.582 83.12C160.134 83.12 160.734 83.012 161.262 82.832V81.452C160.782 81.632 160.278 81.728 159.822 81.728C158.85 81.728 158.502 81.332 158.502 80.54V77.696H161.262V76.4ZM173.373 72.956V74.84H175.149V72.956H173.373ZM175.089 76.4H171.657V77.744H173.577V81.656H171.261V83H176.853V81.656H175.089V76.4ZM182.957 77.276C182.537 76.64 181.889 76.28 181.085 76.28C179.525 76.28 178.601 77.576 178.601 79.76C178.601 81.872 179.525 83.12 181.085 83.12C181.961 83.12 182.645 82.7 183.065 81.896L183.269 83H184.469V74.12H182.957V77.276ZM181.553 81.752C180.545 81.752 180.173 81.188 180.173 79.64C180.173 78.188 180.545 77.648 181.553 77.648C182.573 77.648 182.957 78.212 182.957 79.76C182.957 81.212 182.573 81.752 181.553 81.752ZM186.133 76.604L191.041 79.148L186.133 81.692V83.048L192.469 79.724V78.572L186.133 75.248V76.604ZM196.149 83H197.805V81.224H196.149V83ZM205.001 76.28C204.065 76.28 203.381 76.712 202.961 77.528L202.781 76.4H201.965V85.28H203.045V82.076C203.465 82.76 204.137 83.12 205.001 83.12C206.597 83.12 207.509 81.848 207.509 79.64C207.509 77.492 206.597 76.28 205.001 76.28ZM204.713 82.16C203.501 82.16 203.045 81.44 203.045 79.64C203.045 77.9 203.501 77.24 204.713 77.24C205.925 77.24 206.393 77.96 206.393 79.76C206.393 81.5 205.925 82.16 204.713 82.16ZM213.996 82.124C213 82.124 212.556 81.476 212.556 80.276V74.12H209.136V75.08H211.476V80.372C211.476 82.22 212.328 83.12 213.804 83.12C214.404 83.12 214.98 82.976 215.52 82.712V81.668C215.04 81.968 214.5 82.124 213.996 82.124ZM220.004 82.376L218.108 76.4H216.932L219.188 83H219.764C219.44 83.936 218.72 84.392 217.34 84.392V85.4C219.128 85.4 220.244 84.692 220.772 83.144L223.076 76.4H221.9L220.004 82.376Z" fill="black"/>
<path d="M61.5 74.5V86.5C61.5 87.0523 61.0523 87.5 60.5 87.5H49.5C48.9477 87.5 48.5 87.0523 48.5 86.5V71.5C48.5 70.9477 48.9477 70.5 49.5 70.5H57M61.5 74.5L57 70.5M61.5 74.5H58C57.4477 74.5 57 74.0523 57 73.5V70.5" stroke="black"/>
<path d="M67.5 72.5V84.5C67.5 85.0523 67.0523 85.5 66.5 85.5H62M67.5 72.5L63 68.5M67.5 72.5H64C63.4477 72.5 63 72.0523 63 71.5V68.5M63 68.5H55.5C54.9477 68.5 54.5 68.9477 54.5 69.5V71" stroke="black"/>
<path d="M17.5 28V170" stroke="black"/>
<path d="M36.5 58V138" stroke="black"/>
<path d="M18 169.5H24" stroke="black"/>
<path d="M36 107.5H42" stroke="black"/>
<path d="M36 137.5H42" stroke="black"/>
<path d="M36 77.5H42" stroke="black"/>
<path d="M18 47.5H24" stroke="black"/>
<path d="M68.5 225.5V221.5C68.5 220.948 68.9477 220.5 69.5 220.5H72.5C72.8148 220.5 73.1111 220.648 73.3 220.9L74.2 222.1C74.3889 222.352 74.6852 222.5 75 222.5H84.5C85.0523 222.5 85.5 222.948 85.5 223.5V225.5M68.5 225.5V234.5C68.5 235.052 68.9477 235.5 69.5 235.5H84.5C85.0523 235.5 85.5 235.052 85.5 234.5V225.5M68.5 225.5H77H85.5" stroke="black"/>
<path d="M97.672 228.572V229.724L104.008 233.048V231.692L99.1 229.148L104.008 226.604V225.248L97.672 228.572ZM132.263 235.28V224.12H130.823V235.28H132.263ZM140.551 227.276C140.131 226.64 139.483 226.28 138.679 226.28C137.119 226.28 136.195 227.576 136.195 229.76C136.195 231.872 137.119 233.12 138.679 233.12C139.555 233.12 140.239 232.7 140.659 231.896L140.863 233H142.063V224.12H140.551V227.276ZM139.147 231.752C138.139 231.752 137.767 231.188 137.767 229.64C137.767 228.188 138.139 227.648 139.147 227.648C140.167 227.648 140.551 228.212 140.551 229.76C140.551 231.212 140.167 231.752 139.147 231.752ZM149.943 229.52C149.943 227.48 148.995 226.28 147.087 226.28C144.999 226.28 143.871 227.732 143.871 229.916C143.871 231.956 144.987 233.12 146.931 233.12C147.759 233.12 148.683 232.916 149.415 232.532V231.176C148.743 231.524 147.891 231.74 147.123 231.74C146.115 231.74 145.599 231.344 145.479 230.264H149.919C149.931 230.024 149.943 229.796 149.943 229.52ZM146.991 227.66C147.891 227.66 148.251 228.032 148.347 229.088H145.479C145.599 228.044 146.055 227.66 146.991 227.66ZM155.11 226.28C154.234 226.28 153.55 226.7 153.13 227.504L152.926 226.4H151.726V235.28H153.238V232.124C153.658 232.76 154.306 233.12 155.11 233.12C156.67 233.12 157.594 231.824 157.594 229.64C157.594 227.528 156.67 226.28 155.11 226.28ZM154.642 231.752C153.622 231.752 153.238 231.188 153.238 229.64C153.238 228.188 153.622 227.648 154.642 227.648C155.65 227.648 156.022 228.212 156.022 229.76C156.022 231.212 155.65 231.752 154.642 231.752ZM164.91 226.4H162.15V224.924H160.914L160.638 226.4L159.258 226.7V227.696H160.638V230.756C160.638 232.076 161.466 233.12 163.23 233.12C163.782 233.12 164.382 233.012 164.91 232.832V231.452C164.43 231.632 163.926 231.728 163.47 231.728C162.498 231.728 162.15 231.332 162.15 230.54V227.696H164.91V226.4ZM170.81 226.28C169.958 226.28 169.226 226.7 168.65 227.444V224.12H167.126V233H168.65V228.632C169.274 227.864 169.694 227.576 170.294 227.576C170.966 227.576 171.242 227.936 171.242 228.644V233H172.754V228.392C172.754 227 172.022 226.28 170.81 226.28ZM174.43 226.604L179.338 229.148L174.43 231.692V233.048L180.766 229.724V228.572L174.43 225.248V226.604Z" fill="black" fill-opacity="0.25"/>
<path d="M111.516 226.016C110.46 226.016 109.32 226.664 108.612 227.648L108.384 226.4H105.936V227.744H107.184V231.656H105.54V233H111.132V231.656H108.696V228.608C109.476 228.02 110.376 227.708 111.516 227.708V226.016ZM115.484 230.228C115.664 230.24 115.856 230.252 116.06 230.252C117.932 230.252 118.976 229.508 118.976 228.188C118.976 227.624 118.772 227.18 118.388 226.856L119.564 225.236H117.944L117.572 226.436C117.2 226.34 116.78 226.28 116.288 226.28C114.416 226.28 113.372 227.036 113.372 228.38C113.372 229.16 113.768 229.712 114.524 230.012L113.9 231.68L114.8 232.496C116.036 232.496 117.956 232.556 117.956 233.228C117.956 233.684 117.104 233.996 113.24 234.008V235.424C117.668 235.424 119.54 234.692 119.54 233.228C119.54 231.92 118.064 231.428 115.352 231.368L115.484 230.228ZM116.18 227.516C117.104 227.516 117.476 227.732 117.476 228.26C117.476 228.788 117.104 229.004 116.18 229.004C115.244 229.004 114.872 228.788 114.872 228.26C114.872 227.732 115.244 227.516 116.18 227.516ZM124.383 226.28C123.579 226.28 122.979 226.628 122.559 227.252V224.12H121.047V232.88C121.719 233.036 122.523 233.12 123.171 233.12C125.631 233.12 126.843 231.812 126.843 229.592C126.843 227.552 125.943 226.28 124.383 226.28ZM123.219 231.776C122.979 231.776 122.763 231.764 122.559 231.728V229.676C122.559 228.188 122.955 227.648 123.927 227.648C124.911 227.648 125.271 228.236 125.271 229.64C125.271 231.212 124.719 231.776 123.219 231.776Z" fill="black"/>
<path d="M98.356 292.628C99.124 293 100.012 293.12 100.744 293.12C102.496 293.12 103.348 292.304 103.348 291.176C103.348 288.692 99.436 289.844 99.436 288.176C99.436 287.648 99.82 287.276 100.984 287.276C101.608 287.276 102.208 287.36 103.06 287.732V286.712C102.352 286.424 101.524 286.28 100.828 286.28C99.172 286.28 98.344 287.12 98.344 288.272C98.344 290.756 102.232 289.688 102.232 291.248C102.232 291.764 101.788 292.124 100.648 292.124C99.868 292.124 99.136 291.956 98.356 291.596V292.628ZM111.42 288.788C111.42 287.252 110.316 286.28 108.744 286.28C106.848 286.28 105.72 287.588 105.72 289.88C105.72 291.944 106.848 293.12 108.684 293.12C109.524 293.12 110.34 292.892 111.048 292.46V291.416C110.28 291.932 109.644 292.124 108.828 292.124C107.376 292.124 106.836 291.452 106.836 289.712C106.836 287.924 107.328 287.24 108.72 287.24C109.836 287.24 110.304 287.672 110.304 288.788H111.42ZM119.12 289.508C119.12 287.444 118.172 286.28 116.384 286.28C114.404 286.28 113.288 287.72 113.288 289.904C113.288 292.004 114.416 293.12 116.252 293.12C117.08 293.12 117.896 292.904 118.616 292.484V291.452C117.944 291.872 117.188 292.124 116.36 292.124C115.148 292.124 114.512 291.572 114.416 290.108H119.108C119.12 289.904 119.12 289.724 119.12 289.508ZM116.3 287.276C117.464 287.276 117.908 287.792 117.992 289.184H114.428C114.524 287.792 115.1 287.276 116.3 287.276ZM124.779 286.28C123.735 286.28 122.895 286.868 122.223 287.948L122.019 286.4H121.215V293H122.283V288.728C123.171 287.6 123.723 287.204 124.431 287.204C125.199 287.204 125.511 287.624 125.511 288.416V293H126.579V288.272C126.579 286.928 125.895 286.28 124.779 286.28ZM134.471 289.508C134.471 287.444 133.523 286.28 131.735 286.28C129.755 286.28 128.639 287.72 128.639 289.904C128.639 292.004 129.767 293.12 131.603 293.12C132.431 293.12 133.247 292.904 133.967 292.484V291.452C133.295 291.872 132.539 292.124 131.711 292.124C130.499 292.124 129.863 291.572 129.767 290.108H134.459C134.471 289.904 134.471 289.724 134.471 289.508ZM131.651 287.276C132.815 287.276 133.259 287.792 133.343 289.184H129.779C129.875 287.792 130.451 287.276 131.651 287.276ZM136.015 293.888H142.435V293H136.015V293.888ZM149.799 288.788C149.799 287.252 148.695 286.28 147.123 286.28C145.227 286.28 144.099 287.588 144.099 289.88C144.099 291.944 145.227 293.12 147.063 293.12C147.903 293.12 148.719 292.892 149.427 292.46V291.416C148.659 291.932 148.023 292.124 147.207 292.124C145.755 292.124 145.215 291.452 145.215 289.712C145.215 287.924 145.707 287.24 147.099 287.24C148.215 287.24 148.683 287.672 148.683 288.788H149.799ZM157.018 290.972V288.38C157.018 287.072 156.178 286.28 154.714 286.28C153.982 286.28 153.154 286.472 152.374 286.808V287.84C153.142 287.456 153.766 287.276 154.582 287.276C155.506 287.276 155.938 287.672 155.938 288.488V289.052C152.89 289.064 151.786 289.892 151.786 291.32C151.786 292.448 152.53 293.12 153.79 293.12C154.906 293.12 155.638 292.64 156.082 291.692L156.322 293H157.39L157.018 290.972ZM154.042 292.124C153.274 292.124 152.902 291.764 152.902 291.128C152.902 290.144 153.79 289.784 155.938 289.772V290.3C155.938 291.344 155.182 292.124 154.042 292.124ZM164.13 286.28C163.494 286.28 163.002 286.616 162.654 287.276C162.474 286.58 162.078 286.28 161.574 286.28C160.986 286.28 160.434 286.7 160.05 287.54L159.846 286.4H159.078V293H160.098V288.2C160.41 287.528 160.758 287.264 161.106 287.264C161.538 287.264 161.754 287.672 161.754 288.44V293H162.774V288.308C162.774 288.2 162.774 288.092 162.762 287.996C163.038 287.432 163.338 287.204 163.722 287.204C164.262 287.204 164.43 287.636 164.43 288.44V293H165.45V288.308C165.45 286.88 164.994 286.28 164.13 286.28ZM172.85 289.508C172.85 287.444 171.902 286.28 170.114 286.28C168.134 286.28 167.018 287.72 167.018 289.904C167.018 292.004 168.146 293.12 169.982 293.12C170.81 293.12 171.626 292.904 172.346 292.484V291.452C171.674 291.872 170.918 292.124 170.09 292.124C168.878 292.124 168.242 291.572 168.146 290.108H172.838C172.85 289.904 172.85 289.724 172.85 289.508ZM170.03 287.276C171.194 287.276 171.638 287.792 171.722 289.184H168.158C168.254 287.792 168.83 287.276 170.03 287.276ZM180.706 286.04C179.542 286.04 178.222 286.712 177.478 287.708L177.274 286.4H174.982V287.36H176.458V292.04H174.646V293H180.13V292.04H177.538V288.356C178.426 287.624 179.542 287.228 180.706 287.228V286.04ZM187.722 290.972V288.38C187.722 287.072 186.882 286.28 185.418 286.28C184.686 286.28 183.858 286.472 183.078 286.808V287.84C183.846 287.456 184.47 287.276 185.286 287.276C186.21 287.276 186.642 287.672 186.642 288.488V289.052C183.594 289.064 182.49 289.892 182.49 291.32C182.49 292.448 183.234 293.12 184.494 293.12C185.61 293.12 186.342 292.64 186.786 291.692L187.026 293H188.094L187.722 290.972ZM184.746 292.124C183.978 292.124 183.606 291.764 183.606 291.128C183.606 290.144 184.494 289.784 186.642 289.772V290.3C186.642 291.344 185.886 292.124 184.746 292.124ZM192.121 293H193.777V291.224H192.121V293ZM201.429 284.84H202.881V283.244H201.429V284.84ZM201.705 287.36V292.184C201.705 293.396 200.757 294.392 198.225 294.392V295.4C201.081 295.4 202.773 294.068 202.773 292.04V286.4H198.225V287.36H201.705ZM205.817 292.628C206.585 293 207.473 293.12 208.205 293.12C209.957 293.12 210.809 292.304 210.809 291.176C210.809 288.692 206.897 289.844 206.897 288.176C206.897 287.648 207.281 287.276 208.445 287.276C209.069 287.276 209.669 287.36 210.521 287.732V286.712C209.813 286.424 208.985 286.28 208.289 286.28C206.633 286.28 205.805 287.12 205.805 288.272C205.805 290.756 209.693 289.688 209.693 291.248C209.693 291.764 209.249 292.124 208.109 292.124C207.329 292.124 206.597 291.956 205.817 291.596V292.628ZM215.857 293.12C217.777 293.12 218.881 291.812 218.881 289.508C218.881 287.456 217.885 286.28 216.097 286.28C214.189 286.28 213.085 287.588 213.085 289.88C213.085 291.944 214.081 293.12 215.857 293.12ZM215.977 292.124C214.693 292.124 214.201 291.488 214.201 289.712C214.201 287.936 214.693 287.276 215.977 287.276C217.273 287.276 217.753 287.912 217.753 289.676C217.753 291.452 217.273 292.124 215.977 292.124ZM224.565 286.28C223.521 286.28 222.681 286.868 222.009 287.948L221.805 286.4H221.001V293H222.069V288.728C222.957 287.6 223.509 287.204 224.217 287.204C224.985 287.204 225.297 287.624 225.297 288.416V293H226.365V288.272C226.365 286.928 225.681 286.28 224.565 286.28Z" fill="black"/>
<path d="M83.5 283.5V295.5C83.5 296.052 83.0523 296.5 82.5 296.5H71.5C70.9477 296.5 70.5 296.052 70.5 295.5V280.5C70.5 279.948 70.9477 279.5 71.5 279.5H79M83.5 283.5L79 279.5M83.5 283.5H80C79.4477 283.5 79 283.052 79 282.5V279.5" stroke="black"/>
<path d="M98.356 322.628C99.124 323 100.012 323.12 100.744 323.12C102.496 323.12 103.348 322.304 103.348 321.176C103.348 318.692 99.436 319.844 99.436 318.176C99.436 317.648 99.82 317.276 100.984 317.276C101.608 317.276 102.208 317.36 103.06 317.732V316.712C102.352 316.424 101.524 316.28 100.828 316.28C99.172 316.28 98.344 317.12 98.344 318.272C98.344 320.756 102.232 319.688 102.232 321.248C102.232 321.764 101.788 322.124 100.648 322.124C99.868 322.124 99.136 321.956 98.356 321.596V322.628ZM111.42 318.788C111.42 317.252 110.316 316.28 108.744 316.28C106.848 316.28 105.72 317.588 105.72 319.88C105.72 321.944 106.848 323.12 108.684 323.12C109.524 323.12 110.34 322.892 111.048 322.46V321.416C110.28 321.932 109.644 322.124 108.828 322.124C107.376 322.124 106.836 321.452 106.836 319.712C106.836 317.924 107.328 317.24 108.72 317.24C109.836 317.24 110.304 317.672 110.304 318.788H111.42ZM119.12 319.508C119.12 317.444 118.172 316.28 116.384 316.28C114.404 316.28 113.288 317.72 113.288 319.904C113.288 322.004 114.416 323.12 116.252 323.12C117.08 323.12 117.896 322.904 118.616 322.484V321.452C117.944 321.872 117.188 322.124 116.36 322.124C115.148 322.124 114.512 321.572 114.416 320.108H119.108C119.12 319.904 119.12 319.724 119.12 319.508ZM116.3 317.276C117.464 317.276 117.908 317.792 117.992 319.184H114.428C114.524 317.792 115.1 317.276 116.3 317.276ZM124.779 316.28C123.735 316.28 122.895 316.868 122.223 317.948L122.019 316.4H121.215V323H122.283V318.728C123.171 317.6 123.723 317.204 124.431 317.204C125.199 317.204 125.511 317.624 125.511 318.416V323H126.579V318.272C126.579 316.928 125.895 316.28 124.779 316.28ZM134.471 319.508C134.471 317.444 133.523 316.28 131.735 316.28C129.755 316.28 128.639 317.72 128.639 319.904C128.639 322.004 129.767 323.12 131.603 323.12C132.431 323.12 133.247 322.904 133.967 322.484V321.452C133.295 321.872 132.539 322.124 131.711 322.124C130.499 322.124 129.863 321.572 129.767 320.108H134.459C134.471 319.904 134.471 319.724 134.471 319.508ZM131.651 317.276C132.815 317.276 133.259 317.792 133.343 319.184H129.779C129.875 317.792 130.451 317.276 131.651 317.276ZM136.015 323.888H142.435V323H136.015V323.888ZM146.007 320.192C146.235 320.228 146.499 320.252 146.775 320.252C148.527 320.252 149.559 319.484 149.559 318.188C149.559 317.6 149.331 317.132 148.899 316.796L150.027 315.164H148.779L148.311 316.484C147.939 316.352 147.495 316.28 146.991 316.28C145.227 316.28 144.195 317.06 144.195 318.38C144.195 319.148 144.603 319.712 145.335 320.012L144.747 321.716L145.371 322.352C147.255 322.352 149.031 322.52 149.031 323.312C149.031 323.984 147.903 324.38 144.027 324.392V325.4C148.359 325.4 150.159 324.692 150.159 323.264C150.159 321.944 148.635 321.488 145.803 321.452L146.007 320.192ZM146.883 317.276C147.975 317.276 148.443 317.564 148.443 318.26C148.443 318.944 147.963 319.244 146.883 319.244C145.791 319.244 145.323 318.944 145.323 318.26C145.323 317.564 145.791 317.276 146.883 317.276ZM157.138 316.4H154.258V314.924H153.43L153.178 316.4L151.654 316.664V317.36H153.178V320.924C153.178 322.22 153.934 323.12 155.566 323.12C156.118 323.12 156.658 323.012 157.138 322.844V321.812C156.682 322.016 156.166 322.124 155.674 322.124C154.63 322.124 154.258 321.668 154.258 320.78V317.36H157.138V316.4ZM161.418 323H163.074V321.224H161.418V323ZM170.726 314.84H172.178V313.244H170.726V314.84ZM171.002 317.36V322.184C171.002 323.396 170.054 324.392 167.522 324.392V325.4C170.378 325.4 172.07 324.068 172.07 322.04V316.4H167.522V317.36H171.002ZM175.114 322.628C175.882 323 176.77 323.12 177.502 323.12C179.254 323.12 180.106 322.304 180.106 321.176C180.106 318.692 176.194 319.844 176.194 318.176C176.194 317.648 176.578 317.276 177.742 317.276C178.366 317.276 178.966 317.36 179.818 317.732V316.712C179.11 316.424 178.282 316.28 177.586 316.28C175.93 316.28 175.102 317.12 175.102 318.272C175.102 320.756 178.99 319.688 178.99 321.248C178.99 321.764 178.546 322.124 177.406 322.124C176.626 322.124 175.894 321.956 175.114 321.596V322.628ZM185.154 323.12C187.074 323.12 188.178 321.812 188.178 319.508C188.178 317.456 187.182 316.28 185.394 316.28C183.486 316.28 182.382 317.588 182.382 319.88C182.382 321.944 183.378 323.12 185.154 323.12ZM185.274 322.124C183.99 322.124 183.498 321.488 183.498 319.712C183.498 317.936 183.99 317.276 185.274 317.276C186.57 317.276 187.05 317.912 187.05 319.676C187.05 321.452 186.57 322.124 185.274 322.124ZM193.861 316.28C192.817 316.28 191.977 316.868 191.305 317.948L191.101 316.4H190.297V323H191.365V318.728C192.253 317.6 192.805 317.204 193.513 317.204C194.281 317.204 194.593 317.624 194.593 318.416V323H195.661V318.272C195.661 316.928 194.977 316.28 193.861 316.28Z" fill="black"/>
<path d="M83.5 313.5V325.5C83.5 326.052 83.0523 326.5 82.5 326.5H71.5C70.9477 326.5 70.5 326.052 70.5 325.5V310.5C70.5 309.948 70.9477 309.5 71.5 309.5H79M83.5 313.5L79 309.5M83.5 313.5H80C79.4477 313.5 79 313.052 79 312.5V309.5" stroke="black"/>
<path d="M98.212 351.604C99.016 351.964 99.916 352.12 100.732 352.12C102.46 352.12 103.492 351.364 103.492 350.068C103.492 347.596 99.748 348.58 99.748 347.296C99.748 346.924 100.048 346.672 100.984 346.672C101.62 346.672 102.388 346.792 103.228 347.128V345.712C102.436 345.424 101.572 345.28 100.84 345.28C99.184 345.28 98.188 346.072 98.188 347.368C98.188 349.804 101.908 348.928 101.908 350.128C101.908 350.488 101.584 350.728 100.588 350.728C99.784 350.728 99.016 350.56 98.212 350.212V351.604ZM111.492 347.956C111.492 346.324 110.448 345.28 108.72 345.28C106.716 345.28 105.564 346.624 105.564 348.88C105.564 350.92 106.68 352.12 108.672 352.12C109.56 352.12 110.376 351.892 111.084 351.46V350.044C110.34 350.512 109.56 350.728 108.804 350.728C107.58 350.728 107.148 350.176 107.148 348.7C107.148 347.2 107.544 346.648 108.672 346.648C109.596 346.648 109.956 346.996 109.956 347.956H111.492ZM119.24 348.52C119.24 346.48 118.292 345.28 116.384 345.28C114.296 345.28 113.168 346.732 113.168 348.916C113.168 350.956 114.284 352.12 116.228 352.12C117.056 352.12 117.98 351.916 118.712 351.532V350.176C118.04 350.524 117.188 350.74 116.42 350.74C115.412 350.74 114.896 350.344 114.776 349.264H119.216C119.228 349.024 119.24 348.796 119.24 348.52ZM116.288 346.66C117.188 346.66 117.548 347.032 117.644 348.088H114.776C114.896 347.044 115.352 346.66 116.288 346.66ZM124.755 345.28C123.843 345.28 123.075 345.76 122.475 346.6L122.283 345.4H121.071V352H122.595V347.632C123.219 346.864 123.639 346.576 124.239 346.576C124.911 346.576 125.187 346.936 125.187 347.644V352H126.699V347.392C126.699 346 125.967 345.28 124.755 345.28ZM134.591 348.52C134.591 346.48 133.643 345.28 131.735 345.28C129.647 345.28 128.519 346.732 128.519 348.916C128.519 350.956 129.635 352.12 131.579 352.12C132.407 352.12 133.331 351.916 134.063 351.532V350.176C133.391 350.524 132.539 350.74 131.771 350.74C130.763 350.74 130.247 350.344 130.127 349.264H134.567C134.579 349.024 134.591 348.796 134.591 348.52ZM131.639 346.66C132.539 346.66 132.899 347.032 132.995 348.088H130.127C130.247 347.044 130.703 346.66 131.639 346.66ZM135.979 353.212H142.459V352H135.979V353.212ZM146.187 349.228C146.367 349.24 146.559 349.252 146.763 349.252C148.635 349.252 149.679 348.508 149.679 347.188C149.679 346.624 149.475 346.18 149.091 345.856L150.267 344.236H148.647L148.275 345.436C147.903 345.34 147.483 345.28 146.991 345.28C145.119 345.28 144.075 346.036 144.075 347.38C144.075 348.16 144.471 348.712 145.227 349.012L144.603 350.68L145.503 351.496C146.739 351.496 148.659 351.556 148.659 352.228C148.659 352.684 147.807 352.996 143.943 353.008V354.424C148.371 354.424 150.243 353.692 150.243 352.228C150.243 350.92 148.767 350.428 146.055 350.368L146.187 349.228ZM146.883 346.516C147.807 346.516 148.179 346.732 148.179 347.26C148.179 347.788 147.807 348.004 146.883 348.004C145.947 348.004 145.575 347.788 145.575 347.26C145.575 346.732 145.947 346.516 146.883 346.516ZM157.234 345.4H154.474V343.924H153.238L152.962 345.4L151.582 345.7V346.696H152.962V349.756C152.962 351.076 153.79 352.12 155.554 352.12C156.106 352.12 156.706 352.012 157.234 351.832V350.452C156.754 350.632 156.25 350.728 155.794 350.728C154.822 350.728 154.474 350.332 154.474 349.54V346.696H157.234V345.4ZM159.006 353.212H165.486V352H159.006V353.212ZM171.638 345.4C171.638 347.116 171.494 348.604 171.146 350.536L170.186 347.296H169.61L168.662 350.536C168.302 348.604 168.158 347.116 168.158 345.4H166.646C166.646 347.464 167.03 349.912 167.654 352H169.298L169.898 349.912L170.498 352H172.142C172.766 349.912 173.15 347.464 173.15 345.4H171.638ZM177.478 352.12C179.458 352.12 180.622 350.764 180.622 348.496C180.622 346.468 179.554 345.28 177.718 345.28C175.75 345.28 174.574 346.636 174.574 348.904C174.574 350.932 175.642 352.12 177.478 352.12ZM177.598 350.728C176.53 350.728 176.158 350.2 176.158 348.7C176.158 347.2 176.53 346.672 177.598 346.672C178.666 346.672 179.038 347.2 179.038 348.7C179.038 350.2 178.666 350.728 177.598 350.728ZM188.274 345.016C187.218 345.016 186.078 345.664 185.37 346.648L185.142 345.4H182.694V346.744H183.942V350.656H182.298V352H187.89V350.656H185.454V347.608C186.234 347.02 187.134 346.708 188.274 346.708V345.016ZM194.617 350.728C193.777 350.728 193.393 350.224 193.393 349.276V343.12H189.853V344.464H191.881V349.372C191.881 351.16 192.745 352.12 194.305 352.12C194.917 352.12 195.505 351.976 196.045 351.724V350.32C195.613 350.572 195.097 350.728 194.617 350.728ZM201.957 346.276C201.537 345.64 200.889 345.28 200.085 345.28C198.525 345.28 197.601 346.576 197.601 348.76C197.601 350.872 198.525 352.12 200.085 352.12C200.961 352.12 201.645 351.7 202.065 350.896L202.269 352H203.469V343.12H201.957V346.276ZM200.553 350.752C199.545 350.752 199.173 350.188 199.173 348.64C199.173 347.188 199.545 346.648 200.553 346.648C201.573 346.648 201.957 347.212 201.957 348.76C201.957 350.212 201.573 350.752 200.553 350.752ZM207.281 352H209.321V349.804H207.281V352ZM216.577 343.84H218.341V341.956H216.577V343.84ZM216.769 346.744V351.124C216.769 352.324 215.881 353.056 213.481 353.056V354.424C216.505 354.424 218.293 353.068 218.293 350.932V345.4H213.481V346.744H216.769ZM221.025 351.604C221.829 351.964 222.729 352.12 223.545 352.12C225.273 352.12 226.305 351.364 226.305 350.068C226.305 347.596 222.561 348.58 222.561 347.296C222.561 346.924 222.861 346.672 223.797 346.672C224.433 346.672 225.201 346.792 226.041 347.128V345.712C225.249 345.424 224.385 345.28 223.653 345.28C221.997 345.28 221.001 346.072 221.001 347.368C221.001 349.804 224.721 348.928 224.721 350.128C224.721 350.488 224.397 350.728 223.401 350.728C222.597 350.728 221.829 350.56 221.025 350.212V351.604ZM231.208 352.12C233.188 352.12 234.352 350.764 234.352 348.496C234.352 346.468 233.284 345.28 231.448 345.28C229.48 345.28 228.304 346.636 228.304 348.904C228.304 350.932 229.372 352.12 231.208 352.12ZM231.328 350.728C230.26 350.728 229.888 350.2 229.888 348.7C229.888 347.2 230.26 346.672 231.328 346.672C232.396 346.672 232.768 347.2 232.768 348.7C232.768 350.2 232.396 350.728 231.328 350.728ZM239.892 345.28C238.98 345.28 238.212 345.76 237.612 346.6L237.42 345.4H236.208V352H237.732V347.632C238.356 346.864 238.776 346.576 239.376 346.576C240.048 346.576 240.324 346.936 240.324 347.644V352H241.836V347.392C241.836 346 241.104 345.28 239.892 345.28Z" fill="black"/>
<path d="M83.5 342.5V354.5C83.5 355.052 83.0523 355.5 82.5 355.5H71.5C70.9477 355.5 70.5 355.052 70.5 354.5V339.5C70.5 338.948 70.9477 338.5 71.5 338.5H79M83.5 342.5L79 338.5M83.5 342.5H80C79.4477 342.5 79 342.052 79 341.5V338.5" stroke="black"/>
<path d="M98.212 381.604C99.016 381.964 99.916 382.12 100.732 382.12C102.46 382.12 103.492 381.364 103.492 380.068C103.492 377.596 99.748 378.58 99.748 377.296C99.748 376.924 100.048 376.672 100.984 376.672C101.62 376.672 102.388 376.792 103.228 377.128V375.712C102.436 375.424 101.572 375.28 100.84 375.28C99.184 375.28 98.188 376.072 98.188 377.368C98.188 379.804 101.908 378.928 101.908 380.128C101.908 380.488 101.584 380.728 100.588 380.728C99.784 380.728 99.016 380.56 98.212 380.212V381.604ZM111.492 377.956C111.492 376.324 110.448 375.28 108.72 375.28C106.716 375.28 105.564 376.624 105.564 378.88C105.564 380.92 106.68 382.12 108.672 382.12C109.56 382.12 110.376 381.892 111.084 381.46V380.044C110.34 380.512 109.56 380.728 108.804 380.728C107.58 380.728 107.148 380.176 107.148 378.7C107.148 377.2 107.544 376.648 108.672 376.648C109.596 376.648 109.956 376.996 109.956 377.956H111.492ZM119.24 378.52C119.24 376.48 118.292 375.28 116.384 375.28C114.296 375.28 113.168 376.732 113.168 378.916C113.168 380.956 114.284 382.12 116.228 382.12C117.056 382.12 117.98 381.916 118.712 381.532V380.176C118.04 380.524 117.188 380.74 116.42 380.74C115.412 380.74 114.896 380.344 114.776 379.264H119.216C119.228 379.024 119.24 378.796 119.24 378.52ZM116.288 376.66C117.188 376.66 117.548 377.032 117.644 378.088H114.776C114.896 377.044 115.352 376.66 116.288 376.66ZM124.755 375.28C123.843 375.28 123.075 375.76 122.475 376.6L122.283 375.4H121.071V382H122.595V377.632C123.219 376.864 123.639 376.576 124.239 376.576C124.911 376.576 125.187 376.936 125.187 377.644V382H126.699V377.392C126.699 376 125.967 375.28 124.755 375.28ZM134.591 378.52C134.591 376.48 133.643 375.28 131.735 375.28C129.647 375.28 128.519 376.732 128.519 378.916C128.519 380.956 129.635 382.12 131.579 382.12C132.407 382.12 133.331 381.916 134.063 381.532V380.176C133.391 380.524 132.539 380.74 131.771 380.74C130.763 380.74 130.247 380.344 130.127 379.264H134.567C134.579 379.024 134.591 378.796 134.591 378.52ZM131.639 376.66C132.539 376.66 132.899 377.032 132.995 378.088H130.127C130.247 377.044 130.703 376.66 131.639 376.66ZM135.979 383.212H142.459V382H135.979V383.212ZM146.319 371.956V373.84H148.095V371.956H146.319ZM148.035 375.4H144.603V376.744H146.523V380.656H144.207V382H149.799V380.656H148.035V375.4ZM155.458 375.28C154.546 375.28 153.778 375.76 153.178 376.6L152.986 375.4H151.774V382H153.298V377.632C153.922 376.864 154.342 376.576 154.942 376.576C155.614 376.576 155.89 376.936 155.89 377.644V382H157.402V377.392C157.402 376 156.67 375.28 155.458 375.28ZM165.246 372.988C162.09 372.988 160.854 373.744 160.854 375.568V375.88H159.438V377.116H160.854V382.012H162.378V377.116H165.246V375.88H162.378V375.604C162.378 374.488 162.882 374.356 165.246 374.356V372.988ZM169.802 382.12C171.782 382.12 172.946 380.764 172.946 378.496C172.946 376.468 171.878 375.28 170.042 375.28C168.074 375.28 166.898 376.636 166.898 378.904C166.898 380.932 167.966 382.12 169.802 382.12ZM169.922 380.728C168.854 380.728 168.482 380.2 168.482 378.7C168.482 377.2 168.854 376.672 169.922 376.672C170.99 376.672 171.362 377.2 171.362 378.7C171.362 380.2 170.99 380.728 169.922 380.728ZM176.578 382H178.618V379.804H176.578V382ZM185.874 373.84H187.638V371.956H185.874V373.84ZM186.066 376.744V381.124C186.066 382.324 185.178 383.056 182.778 383.056V384.424C185.802 384.424 187.59 383.068 187.59 380.932V375.4H182.778V376.744H186.066ZM190.321 381.604C191.125 381.964 192.025 382.12 192.841 382.12C194.569 382.12 195.601 381.364 195.601 380.068C195.601 377.596 191.857 378.58 191.857 377.296C191.857 376.924 192.157 376.672 193.093 376.672C193.729 376.672 194.497 376.792 195.337 377.128V375.712C194.545 375.424 193.681 375.28 192.949 375.28C191.293 375.28 190.297 376.072 190.297 377.368C190.297 379.804 194.017 378.928 194.017 380.128C194.017 380.488 193.693 380.728 192.697 380.728C191.893 380.728 191.125 380.56 190.321 380.212V381.604ZM200.505 382.12C202.485 382.12 203.649 380.764 203.649 378.496C203.649 376.468 202.581 375.28 200.745 375.28C198.777 375.28 197.601 376.636 197.601 378.904C197.601 380.932 198.669 382.12 200.505 382.12ZM200.625 380.728C199.557 380.728 199.185 380.2 199.185 378.7C199.185 377.2 199.557 376.672 200.625 376.672C201.693 376.672 202.065 377.2 202.065 378.7C202.065 380.2 201.693 380.728 200.625 380.728ZM209.189 375.28C208.277 375.28 207.509 375.76 206.909 376.6L206.717 375.4H205.505V382H207.029V377.632C207.653 376.864 208.073 376.576 208.673 376.576C209.345 376.576 209.621 376.936 209.621 377.644V382H211.133V377.392C211.133 376 210.401 375.28 209.189 375.28Z" fill="black"/>
<path d="M83.5 372.5V384.5C83.5 385.052 83.0523 385.5 82.5 385.5H71.5C70.9477 385.5 70.5 385.052 70.5 384.5V369.5C70.5 368.948 70.9477 368.5 71.5 368.5H79M83.5 372.5L79 368.5M83.5 372.5H80C79.4477 372.5 79 372.052 79 371.5V368.5" stroke="black"/>
<path d="M27.5 167.5V163.5C27.5 162.948 27.9477 162.5 28.5 162.5H31.5C31.8148 162.5 32.1111 162.648 32.3 162.9L33.2 164.1C33.3889 164.352 33.6852 164.5 34 164.5H43.5C44.0523 164.5 44.5 164.948 44.5 165.5V167.5M27.5 167.5V176.5C27.5 177.052 27.9477 177.5 28.5 177.5H43.5C44.0523 177.5 44.5 177.052 44.5 176.5V167.5M27.5 167.5H44.5" stroke="black"/>
<path d="M29.5 162.5V159.5C29.5 158.948 29.9477 158.5 30.5 158.5H33.5C33.8148 158.5 34.1111 158.648 34.3 158.9L35.2 160.1C35.3889 160.352 35.6852 160.5 36 160.5H45.5C46.0523 160.5 46.5 160.948 46.5 161.5V162.5V172.5C46.5 173.052 46.0523 173.5 45.5 173.5H44.5" stroke="black"/>
<path d="M57.672 168.572V169.724L64.008 173.048V171.692L59.1 169.148L64.008 166.604V165.248L57.672 168.572ZM71.5158 166.016C70.4598 166.016 69.3198 166.664 68.6118 167.648L68.3838 166.4H65.9358V167.744H67.1838V171.656H65.5398V173H71.1318V171.656H68.6958V168.608C69.4758 168.02 70.3758 167.708 71.5158 167.708V166.016ZM79.2396 169.52C79.2396 167.48 78.2916 166.28 76.3836 166.28C74.2956 166.28 73.1676 167.732 73.1676 169.916C73.1676 171.956 74.2836 173.12 76.2276 173.12C77.0556 173.12 77.9796 172.916 78.7116 172.532V171.176C78.0396 171.524 77.1876 171.74 76.4196 171.74C75.4116 171.74 74.8956 171.344 74.7756 170.264H79.2156C79.2276 170.024 79.2396 169.796 79.2396 169.52ZM76.2876 167.66C77.1876 167.66 77.5476 168.032 77.6436 169.088H74.7756C74.8956 168.044 75.3516 167.66 76.2876 167.66ZM86.5313 171.116V168.512C86.5313 167.144 85.6193 166.28 84.0233 166.28C83.3033 166.28 82.4393 166.46 81.5753 166.772V168.14C82.3433 167.78 83.0033 167.624 83.7473 167.624C84.6113 167.624 85.0073 167.972 85.0073 168.764V168.872C82.0433 168.896 80.9273 169.784 80.9273 171.26C80.9273 172.412 81.6473 173.12 82.9913 173.12C83.9993 173.12 84.7073 172.724 85.1753 171.932L85.3793 173H86.8793L86.5313 171.116ZM83.4593 171.764C82.7873 171.764 82.5113 171.476 82.5113 170.984C82.5113 170.204 83.1833 169.868 85.0073 169.856V170.3C85.0073 171.2 84.3953 171.764 83.4593 171.764ZM93.2111 171.728C92.3711 171.728 91.9871 171.224 91.9871 170.276V164.12H88.4471V165.464H90.4751V170.372C90.4751 172.16 91.3391 173.12 92.8991 173.12C93.5111 173.12 94.0991 172.976 94.6391 172.724V171.32C94.2071 171.572 93.6911 171.728 93.2111 171.728ZM99.9389 175.28V164.12H98.4989V175.28H99.9389ZM104.267 172.604C105.071 172.964 105.971 173.12 106.787 173.12C108.515 173.12 109.547 172.364 109.547 171.068C109.547 168.596 105.803 169.58 105.803 168.296C105.803 167.924 106.103 167.672 107.039 167.672C107.675 167.672 108.443 167.792 109.283 168.128V166.712C108.491 166.424 107.627 166.28 106.895 166.28C105.239 166.28 104.243 167.072 104.243 168.368C104.243 170.804 107.963 169.928 107.963 171.128C107.963 171.488 107.639 171.728 106.643 171.728C105.839 171.728 105.071 171.56 104.267 171.212V172.604ZM113.994 162.956V164.84H115.77V162.956H113.994ZM115.71 166.4H112.278V167.744H114.198V171.656H111.882V173H117.474V171.656H115.71V166.4ZM124.094 166.28C123.518 166.28 123.05 166.592 122.726 167.156C122.534 166.568 122.186 166.28 121.742 166.28C121.226 166.28 120.746 166.64 120.386 167.324L120.17 166.4H119.054V173H120.47V168.284C120.686 167.804 120.926 167.612 121.154 167.612C121.478 167.612 121.634 167.948 121.634 168.608V173H122.882V168.356C122.882 168.236 122.882 168.116 122.87 167.996C123.038 167.696 123.23 167.576 123.482 167.576C123.914 167.576 124.046 167.924 124.046 168.608V173H125.462V168.356C125.462 166.952 124.982 166.28 124.094 166.28ZM126.754 166.604L131.662 169.148L126.754 171.692V173.048L133.09 169.724V168.572L126.754 165.248V166.604ZM134.394 173.888H140.814V173H134.394V173.888ZM142.106 168.572V169.724L148.442 173.048V171.692L143.534 169.148L148.442 166.604V165.248L142.106 168.572ZM155.925 168.956C155.925 167.324 154.881 166.28 153.153 166.28C151.149 166.28 149.997 167.624 149.997 169.88C149.997 171.92 151.113 173.12 153.105 173.12C153.993 173.12 154.809 172.892 155.517 172.46V171.044C154.773 171.512 153.993 171.728 153.237 171.728C152.013 171.728 151.581 171.176 151.581 169.7C151.581 168.2 151.977 167.648 153.105 167.648C154.029 167.648 154.389 167.996 154.389 168.956H155.925ZM163.289 171.116V168.512C163.289 167.144 162.377 166.28 160.781 166.28C160.061 166.28 159.197 166.46 158.333 166.772V168.14C159.101 167.78 159.761 167.624 160.505 167.624C161.369 167.624 161.765 167.972 161.765 168.764V168.872C158.801 168.896 157.685 169.784 157.685 171.26C157.685 172.412 158.405 173.12 159.749 173.12C160.757 173.12 161.465 172.724 161.933 171.932L162.137 173H163.637L163.289 171.116ZM160.217 171.764C159.545 171.764 159.269 171.476 159.269 170.984C159.269 170.204 159.941 169.868 161.765 169.856V170.3C161.765 171.2 161.153 171.764 160.217 171.764ZM170.149 166.28C169.573 166.28 169.105 166.592 168.781 167.156C168.589 166.568 168.241 166.28 167.797 166.28C167.281 166.28 166.801 166.64 166.441 167.324L166.225 166.4H165.109V173H166.525V168.284C166.741 167.804 166.981 167.612 167.209 167.612C167.533 167.612 167.689 167.948 167.689 168.608V173H168.937V168.356C168.937 168.236 168.937 168.116 168.925 167.996C169.093 167.696 169.285 167.576 169.537 167.576C169.969 167.576 170.101 167.924 170.101 168.608V173H171.517V168.356C171.517 166.952 171.037 166.28 170.149 166.28ZM179.025 169.52C179.025 167.48 178.077 166.28 176.169 166.28C174.081 166.28 172.953 167.732 172.953 169.916C172.953 171.956 174.069 173.12 176.013 173.12C176.841 173.12 177.765 172.916 178.497 172.532V171.176C177.825 171.524 176.973 171.74 176.205 171.74C175.197 171.74 174.681 171.344 174.561 170.264H179.001C179.013 170.024 179.025 169.796 179.025 169.52ZM176.073 167.66C176.973 167.66 177.333 168.032 177.429 169.088H174.561C174.681 168.044 175.137 167.66 176.073 167.66ZM186.653 166.016C185.597 166.016 184.457 166.664 183.749 167.648L183.521 166.4H181.073V167.744H182.321V171.656H180.677V173H186.269V171.656H183.833V168.608C184.613 168.02 185.513 167.708 186.653 167.708V166.016ZM193.992 171.116V168.512C193.992 167.144 193.08 166.28 191.484 166.28C190.764 166.28 189.9 166.46 189.036 166.772V168.14C189.804 167.78 190.464 167.624 191.208 167.624C192.072 167.624 192.468 167.972 192.468 168.764V168.872C189.504 168.896 188.388 169.784 188.388 171.26C188.388 172.412 189.108 173.12 190.452 173.12C191.46 173.12 192.168 172.724 192.636 171.932L192.84 173H194.34L193.992 171.116ZM190.92 171.764C190.248 171.764 189.972 171.476 189.972 170.984C189.972 170.204 190.644 169.868 192.468 169.856V170.3C192.468 171.2 191.856 171.764 190.92 171.764ZM195.836 166.604L200.744 169.148L195.836 171.692V173.048L202.172 169.724V168.572L195.836 165.248V166.604Z" fill="black"/>
<path d="M47.5 197.5V193.5C47.5 192.948 47.9477 192.5 48.5 192.5H51.5C51.8148 192.5 52.1111 192.648 52.3 192.9L53.2 194.1C53.3889 194.352 53.6852 194.5 54 194.5H63.5C64.0523 194.5 64.5 194.948 64.5 195.5V197.5M47.5 197.5V206.5C47.5 207.052 47.9477 207.5 48.5 207.5H63.5C64.0523 207.5 64.5 207.052 64.5 206.5V197.5M47.5 197.5H64.5" stroke="black"/>
<path d="M49.5 192.5V189.5C49.5 188.948 49.9477 188.5 50.5 188.5H53.5C53.8148 188.5 54.1111 188.648 54.3 188.9L55.2 190.1C55.3889 190.352 55.6852 190.5 56 190.5H65.5C66.0523 190.5 66.5 190.948 66.5 191.5V192.5V202.5C66.5 203.052 66.0523 203.5 65.5 203.5H64.5" stroke="black"/>
<path d="M77.672 198.572V199.724L84.008 203.048V201.692L79.1 199.148L84.008 196.604V195.248L77.672 198.572ZM85.8878 202.604C86.6918 202.964 87.5918 203.12 88.4078 203.12C90.1358 203.12 91.1678 202.364 91.1678 201.068C91.1678 198.596 87.4238 199.58 87.4238 198.296C87.4238 197.924 87.7238 197.672 88.6598 197.672C89.2958 197.672 90.0638 197.792 90.9038 198.128V196.712C90.1118 196.424 89.2478 196.28 88.5158 196.28C86.8598 196.28 85.8638 197.072 85.8638 198.368C85.8638 200.804 89.5838 199.928 89.5838 201.128C89.5838 201.488 89.2598 201.728 88.2638 201.728C87.4598 201.728 86.6918 201.56 85.8878 201.212V202.604ZM99.1676 198.956C99.1676 197.324 98.1236 196.28 96.3956 196.28C94.3916 196.28 93.2396 197.624 93.2396 199.88C93.2396 201.92 94.3556 203.12 96.3476 203.12C97.2356 203.12 98.0516 202.892 98.7596 202.46V201.044C98.0156 201.512 97.2356 201.728 96.4796 201.728C95.2556 201.728 94.8236 201.176 94.8236 199.7C94.8236 198.2 95.2196 197.648 96.3476 197.648C97.2716 197.648 97.6316 197.996 97.6316 198.956H99.1676ZM106.915 199.52C106.915 197.48 105.967 196.28 104.059 196.28C101.971 196.28 100.843 197.732 100.843 199.916C100.843 201.956 101.959 203.12 103.903 203.12C104.731 203.12 105.655 202.916 106.387 202.532V201.176C105.715 201.524 104.863 201.74 104.095 201.74C103.087 201.74 102.571 201.344 102.451 200.264H106.891C106.903 200.024 106.915 199.796 106.915 199.52ZM103.963 197.66C104.863 197.66 105.223 198.032 105.319 199.088H102.451C102.571 198.044 103.027 197.66 103.963 197.66ZM112.431 196.28C111.519 196.28 110.751 196.76 110.151 197.6L109.959 196.4H108.747V203H110.271V198.632C110.895 197.864 111.315 197.576 111.915 197.576C112.587 197.576 112.863 197.936 112.863 198.644V203H114.375V198.392C114.375 197 113.643 196.28 112.431 196.28ZM122.267 199.52C122.267 197.48 121.319 196.28 119.411 196.28C117.323 196.28 116.195 197.732 116.195 199.916C116.195 201.956 117.311 203.12 119.255 203.12C120.083 203.12 121.007 202.916 121.739 202.532V201.176C121.067 201.524 120.215 201.74 119.447 201.74C118.439 201.74 117.923 201.344 117.803 200.264H122.243C122.255 200.024 122.267 199.796 122.267 199.52ZM119.315 197.66C120.215 197.66 120.575 198.032 120.671 199.088H117.803C117.923 198.044 118.379 197.66 119.315 197.66ZM133.994 192.956V194.84H135.77V192.956H133.994ZM135.71 196.4H132.278V197.744H134.198V201.656H131.882V203H137.474V201.656H135.71V196.4ZM143.578 197.276C143.158 196.64 142.51 196.28 141.706 196.28C140.146 196.28 139.222 197.576 139.222 199.76C139.222 201.872 140.146 203.12 141.706 203.12C142.582 203.12 143.266 202.7 143.686 201.896L143.89 203H145.09V194.12H143.578V197.276ZM142.174 201.752C141.166 201.752 140.794 201.188 140.794 199.64C140.794 198.188 141.166 197.648 142.174 197.648C143.194 197.648 143.578 198.212 143.578 199.76C143.578 201.212 143.194 201.752 142.174 201.752ZM146.754 196.604L151.662 199.148L146.754 201.692V203.048L153.09 199.724V198.572L146.754 195.248V196.604Z" fill="black"/>
<path d="M56.5 210L56.5 378" stroke="black"/>
<path d="M56 227.5H62" stroke="black"/>
<path d="M56 287.5H62" stroke="black"/>
<path d="M56 317.5H62" stroke="black"/>
<path d="M56 347.5H62" stroke="black"/>
<path d="M56 377.5H62" stroke="black"/>
<path d="M35.5 180L35.5 199" stroke="black"/>
<path d="M35 199.5H41" stroke="black"/>
<path d="M77.5 238L77.5 259" stroke="black"/>
<path d="M77 259.5H83" stroke="black"/>
<path d="M118.672 258.572V259.724L125.008 263.048V261.692L120.1 259.148L125.008 256.604V255.248L118.672 258.572ZM128.94 252.956V254.84H130.716V252.956H128.94ZM130.656 256.4H127.224V257.744H129.144V261.656H126.828V263H132.42V261.656H130.656V256.4ZM139.04 256.28C138.464 256.28 137.996 256.592 137.672 257.156C137.48 256.568 137.132 256.28 136.688 256.28C136.172 256.28 135.692 256.64 135.332 257.324L135.116 256.4H134V263H135.416V258.284C135.632 257.804 135.872 257.612 136.1 257.612C136.424 257.612 136.58 257.948 136.58 258.608V263H137.828V258.356C137.828 258.236 137.828 258.116 137.816 257.996C137.984 257.696 138.176 257.576 138.428 257.576C138.86 257.576 138.992 257.924 138.992 258.608V263H140.408V258.356C140.408 256.952 139.928 256.28 139.04 256.28ZM147.531 261.116V258.512C147.531 257.144 146.619 256.28 145.023 256.28C144.303 256.28 143.439 256.46 142.575 256.772V258.14C143.343 257.78 144.003 257.624 144.747 257.624C145.611 257.624 146.007 257.972 146.007 258.764V258.872C143.043 258.896 141.927 259.784 141.927 261.26C141.927 262.412 142.647 263.12 143.991 263.12C144.999 263.12 145.707 262.724 146.175 261.932L146.379 263H147.879L147.531 261.116ZM144.459 261.764C143.787 261.764 143.511 261.476 143.511 260.984C143.511 260.204 144.183 259.868 146.007 259.856V260.3C146.007 261.2 145.395 261.764 144.459 261.764ZM151.835 260.228C152.015 260.24 152.207 260.252 152.411 260.252C154.283 260.252 155.327 259.508 155.327 258.188C155.327 257.624 155.123 257.18 154.739 256.856L155.915 255.236H154.295L153.923 256.436C153.551 256.34 153.131 256.28 152.639 256.28C150.767 256.28 149.723 257.036 149.723 258.38C149.723 259.16 150.119 259.712 150.875 260.012L150.251 261.68L151.151 262.496C152.387 262.496 154.307 262.556 154.307 263.228C154.307 263.684 153.455 263.996 149.591 264.008V265.424C154.019 265.424 155.891 264.692 155.891 263.228C155.891 261.92 154.415 261.428 151.703 261.368L151.835 260.228ZM152.531 257.516C153.455 257.516 153.827 257.732 153.827 258.26C153.827 258.788 153.455 259.004 152.531 259.004C151.595 259.004 151.223 258.788 151.223 258.26C151.223 257.732 151.595 257.516 152.531 257.516ZM163.267 259.52C163.267 257.48 162.319 256.28 160.411 256.28C158.323 256.28 157.195 257.732 157.195 259.916C157.195 261.956 158.311 263.12 160.255 263.12C161.083 263.12 162.007 262.916 162.739 262.532V261.176C162.067 261.524 161.215 261.74 160.447 261.74C159.439 261.74 158.923 261.344 158.803 260.264H163.243C163.255 260.024 163.267 259.796 163.267 259.52ZM160.315 257.66C161.215 257.66 161.575 258.032 161.671 259.088H158.803C158.923 258.044 159.379 257.66 160.315 257.66ZM174.994 252.956V254.84H176.77V252.956H174.994ZM176.71 256.4H173.278V257.744H175.198V261.656H172.882V263H178.474V261.656H176.71V256.4ZM184.578 257.276C184.158 256.64 183.51 256.28 182.706 256.28C181.146 256.28 180.222 257.576 180.222 259.76C180.222 261.872 181.146 263.12 182.706 263.12C183.582 263.12 184.266 262.7 184.686 261.896L184.89 263H186.09V254.12H184.578V257.276ZM183.174 261.752C182.166 261.752 181.794 261.188 181.794 259.64C181.794 258.188 182.166 257.648 183.174 257.648C184.194 257.648 184.578 258.212 184.578 259.76C184.578 261.212 184.194 261.752 183.174 261.752ZM187.754 256.604L192.662 259.148L187.754 261.692V263.048L194.09 259.724V258.572L187.754 255.248V256.604ZM197.77 263H199.426V261.224H197.77V263ZM203.106 258.572V259.724L209.442 263.048V261.692L204.534 259.148L209.442 256.604V255.248L203.106 258.572ZM214.489 256.28C213.613 256.28 212.929 256.7 212.509 257.504L212.305 256.4H211.105V265.28H212.617V262.124C213.037 262.76 213.685 263.12 214.489 263.12C216.049 263.12 216.973 261.824 216.973 259.64C216.973 257.528 216.049 256.28 214.489 256.28ZM214.021 261.752C213.001 261.752 212.617 261.188 212.617 259.64C212.617 258.188 213.001 257.648 214.021 257.648C215.029 257.648 215.401 258.212 215.401 259.76C215.401 261.212 215.029 261.752 214.021 261.752ZM222.513 256.28C221.601 256.28 220.833 256.76 220.233 257.6L220.041 256.4H218.829V263H220.353V258.632C220.977 257.864 221.397 257.576 221.997 257.576C222.669 257.576 222.945 257.936 222.945 258.644V263H224.457V258.392C224.457 257 223.725 256.28 222.513 256.28ZM228.593 260.228C228.773 260.24 228.965 260.252 229.169 260.252C231.041 260.252 232.085 259.508 232.085 258.188C232.085 257.624 231.881 257.18 231.497 256.856L232.673 255.236H231.053L230.681 256.436C230.309 256.34 229.889 256.28 229.397 256.28C227.525 256.28 226.481 257.036 226.481 258.38C226.481 259.16 226.877 259.712 227.633 260.012L227.009 261.68L227.909 262.496C229.145 262.496 231.065 262.556 231.065 263.228C231.065 263.684 230.213 263.996 226.349 264.008V265.424C230.777 265.424 232.649 264.692 232.649 263.228C232.649 261.92 231.173 261.428 228.461 261.368L228.593 260.228ZM229.289 257.516C230.213 257.516 230.585 257.732 230.585 258.26C230.585 258.788 230.213 259.004 229.289 259.004C228.353 259.004 227.981 258.788 227.981 258.26C227.981 257.732 228.353 257.516 229.289 257.516ZM237.697 265.28V254.12H236.257V265.28H237.697ZM245.253 254.84H247.017V252.956H245.253V254.84ZM245.445 257.744V262.124C245.445 263.324 244.557 264.056 242.157 264.056V265.424C245.181 265.424 246.969 264.068 246.969 261.932V256.4H242.157V257.744H245.445ZM252.868 256.28C251.992 256.28 251.308 256.7 250.888 257.504L250.684 256.4H249.484V265.28H250.996V262.124C251.416 262.76 252.064 263.12 252.868 263.12C254.428 263.12 255.352 261.824 255.352 259.64C255.352 257.528 254.428 256.28 252.868 256.28ZM252.4 261.752C251.38 261.752 250.996 261.188 250.996 259.64C250.996 258.188 251.38 257.648 252.4 257.648C253.408 257.648 253.78 258.212 253.78 259.76C253.78 261.212 253.408 261.752 252.4 261.752ZM259.296 260.228C259.476 260.24 259.668 260.252 259.872 260.252C261.744 260.252 262.788 259.508 262.788 258.188C262.788 257.624 262.584 257.18 262.2 256.856L263.376 255.236H261.756L261.384 256.436C261.012 256.34 260.592 256.28 260.1 256.28C258.228 256.28 257.184 257.036 257.184 258.38C257.184 259.16 257.58 259.712 258.336 260.012L257.712 261.68L258.612 262.496C259.848 262.496 261.768 262.556 261.768 263.228C261.768 263.684 260.916 263.996 257.052 264.008V265.424C261.48 265.424 263.352 264.692 263.352 263.228C263.352 261.92 261.876 261.428 259.164 261.368L259.296 260.228ZM259.992 257.516C260.916 257.516 261.288 257.732 261.288 258.26C261.288 258.788 260.916 259.004 259.992 259.004C259.056 259.004 258.684 258.788 258.684 258.26C258.684 257.732 259.056 257.516 259.992 257.516ZM264.512 256.604L269.42 259.148L264.512 261.692V263.048L270.848 259.724V258.572L264.512 255.248V256.604Z" fill="black"/>
<path d="M100.5 255.5V267.5C100.5 268.052 100.052 268.5 99.5 268.5H88.5C87.9477 268.5 87.5 268.052 87.5 267.5V252.5C87.5 251.948 87.9477 251.5 88.5 251.5H96M100.5 255.5L96 251.5M100.5 255.5H97C96.4477 255.5 96 255.052 96 254.5V251.5" stroke="black"/>
<path d="M106.5 253.5V265.5C106.5 266.052 106.052 266.5 105.5 266.5H101M106.5 253.5L102 249.5M106.5 253.5H103C102.448 253.5 102 253.052 102 252.5V249.5M102 249.5H94.5C93.9477 249.5 93.5 249.948 93.5 250.5V252" stroke="black"/>
</svg>
