<svg width="268" height="367" viewBox="0 0 268 367" fill="none" xmlns="http://www.w3.org/2000/svg">
<path d="M9.5 15.5V11.5C9.5 10.9477 9.94772 10.5 10.5 10.5H13.5C13.8148 10.5 14.1111 10.6482 14.3 10.9L15.2 12.1C15.3889 12.3518 15.6852 12.5 16 12.5H25.5C26.0523 12.5 26.5 12.9477 26.5 13.5V15.5M9.5 15.5V24.5C9.5 25.0523 9.94772 25.5 10.5 25.5H25.5C26.0523 25.5 26.5 25.0523 26.5 24.5V15.5M9.5 15.5H18H26.5" stroke="#1D1D1F"/>
<path d="M41.42 13.244V14.84H42.872V13.244H41.42ZM42.764 16.4H39.668V17.36H41.684V22.04H39.308V23H44.588V22.04H42.764V16.4ZM50.4278 16.28C49.3838 16.28 48.5438 16.868 47.8718 17.948L47.6678 16.4H46.8638V23H47.9318V18.728C48.8198 17.6 49.3718 17.204 50.0798 17.204C50.8478 17.204 51.1598 17.624 51.1598 18.416V23H52.2278V18.272C52.2278 16.928 51.5438 16.28 50.4278 16.28ZM58.8116 17.324C58.3796 16.652 57.7196 16.28 56.8436 16.28C55.2476 16.28 54.3356 17.552 54.3356 19.76C54.3356 21.908 55.2476 23.12 56.8436 23.12C57.7676 23.12 58.4636 22.688 58.8956 21.872L59.0756 23H59.8796V14.12H58.8116V17.324ZM57.1316 22.16C55.9196 22.16 55.4636 21.44 55.4636 19.64C55.4636 17.9 55.9196 17.24 57.1316 17.24C58.3436 17.24 58.8116 17.96 58.8116 19.76C58.8116 21.5 58.3436 22.16 57.1316 22.16ZM66.4513 20.684C65.5633 21.788 65.0113 22.196 64.3033 22.196C63.5473 22.196 63.2353 21.776 63.2353 20.984V16.4H62.1553V21.128C62.1553 22.472 62.8393 23.12 63.9553 23.12C65.0113 23.12 65.8513 22.52 66.5113 21.452L66.7153 23H67.5313V16.4H66.4513V20.684ZM70.0591 22.628C70.8271 23 71.7151 23.12 72.4471 23.12C74.1991 23.12 75.0511 22.304 75.0511 21.176C75.0511 18.692 71.1391 19.844 71.1391 18.176C71.1391 17.648 71.5231 17.276 72.6871 17.276C73.3111 17.276 73.9111 17.36 74.7631 17.732V16.712C74.0551 16.424 73.2271 16.28 72.5311 16.28C70.8751 16.28 70.0471 17.12 70.0471 18.272C70.0471 20.756 73.9351 19.688 73.9351 21.248C73.9351 21.764 73.4911 22.124 72.3511 22.124C71.5711 22.124 70.8391 21.956 70.0591 21.596V22.628ZM82.7869 16.4H79.9069V14.924H79.0789L78.8269 16.4L77.3029 16.664V17.36H78.8269V20.924C78.8269 22.22 79.5829 23.12 81.2149 23.12C81.7669 23.12 82.3069 23.012 82.7869 22.844V21.812C82.3309 22.016 81.8149 22.124 81.3229 22.124C80.2789 22.124 79.9069 21.668 79.9069 20.78V17.36H82.7869V16.4ZM91.0027 16.04C89.8387 16.04 88.5187 16.712 87.7747 17.708L87.5707 16.4H85.2787V17.36H86.7547V22.04H84.9427V23H90.4267V22.04H87.8347V18.356C88.7227 17.624 89.8387 17.228 91.0027 17.228V16.04ZM95.1505 13.244V14.84H96.6025V13.244H95.1505ZM96.4945 16.4H93.3985V17.36H95.4145V22.04H93.0385V23H98.3185V22.04H96.4945V16.4ZM105.694 20.972V18.38C105.694 17.072 104.854 16.28 103.39 16.28C102.658 16.28 101.83 16.472 101.05 16.808V17.84C101.818 17.456 102.442 17.276 103.258 17.276C104.182 17.276 104.614 17.672 104.614 18.488V19.052C101.566 19.064 100.462 19.892 100.462 21.32C100.462 22.448 101.206 23.12 102.466 23.12C103.582 23.12 104.314 22.64 104.758 21.692L104.998 23H106.066L105.694 20.972ZM102.718 22.124C101.95 22.124 101.578 21.764 101.578 21.128C101.578 20.144 102.466 19.784 104.614 19.772V20.3C104.614 21.344 103.858 22.124 102.718 22.124ZM112.59 22.124C111.594 22.124 111.15 21.476 111.15 20.276V14.12H107.73V15.08H110.07V20.372C110.07 22.22 110.922 23.12 112.398 23.12C112.998 23.12 113.574 22.976 114.114 22.712V21.668C113.634 21.968 113.094 22.124 112.59 22.124ZM115.394 23.888H121.814V23H115.394V23.888ZM128.158 16.28C127.522 16.28 127.03 16.616 126.682 17.276C126.502 16.58 126.106 16.28 125.602 16.28C125.014 16.28 124.462 16.7 124.078 17.54L123.874 16.4H123.106V23H124.126V18.2C124.438 17.528 124.786 17.264 125.134 17.264C125.566 17.264 125.782 17.672 125.782 18.44V23H126.802V18.308C126.802 18.2 126.802 18.092 126.79 17.996C127.066 17.432 127.366 17.204 127.75 17.204C128.29 17.204 128.458 17.636 128.458 18.44V23H129.478V18.308C129.478 16.88 129.022 16.28 128.158 16.28ZM136.877 19.508C136.877 17.444 135.929 16.28 134.141 16.28C132.161 16.28 131.045 17.72 131.045 19.904C131.045 22.004 132.173 23.12 134.009 23.12C134.837 23.12 135.653 22.904 136.373 22.484V21.452C135.701 21.872 134.945 22.124 134.117 22.124C132.905 22.124 132.269 21.572 132.173 20.108H136.865C136.877 19.904 136.877 19.724 136.877 19.508ZM134.057 17.276C135.221 17.276 135.665 17.792 135.749 19.184H132.185C132.281 17.792 132.857 17.276 134.057 17.276ZM144.193 16.4H141.313V14.924H140.485L140.233 16.4L138.709 16.664V17.36H140.233V20.924C140.233 22.22 140.989 23.12 142.621 23.12C143.173 23.12 143.713 23.012 144.193 22.844V21.812C143.737 22.016 143.221 22.124 142.729 22.124C141.685 22.124 141.313 21.668 141.313 20.78V17.36H144.193V16.4ZM151.749 20.972V18.38C151.749 17.072 150.909 16.28 149.445 16.28C148.713 16.28 147.885 16.472 147.105 16.808V17.84C147.873 17.456 148.497 17.276 149.313 17.276C150.237 17.276 150.669 17.672 150.669 18.488V19.052C147.621 19.064 146.517 19.892 146.517 21.32C146.517 22.448 147.261 23.12 148.521 23.12C149.637 23.12 150.369 22.64 150.813 21.692L151.053 23H152.121L151.749 20.972ZM148.773 22.124C148.005 22.124 147.633 21.764 147.633 21.128C147.633 20.144 148.521 19.784 150.669 19.772V20.3C150.669 21.344 149.913 22.124 148.773 22.124ZM158.645 22.124C157.649 22.124 157.205 21.476 157.205 20.276V14.12H153.785V15.08H156.125V20.372C156.125 22.22 156.977 23.12 158.453 23.12C159.053 23.12 159.629 22.976 160.169 22.712V21.668C159.689 21.968 159.149 22.124 158.645 22.124ZM161.449 23.888H167.868V23H161.449V23.888ZM172.208 23.12C174.128 23.12 175.232 21.812 175.232 19.508C175.232 17.456 174.236 16.28 172.448 16.28C170.54 16.28 169.436 17.588 169.436 19.88C169.436 21.944 170.432 23.12 172.208 23.12ZM172.328 22.124C171.044 22.124 170.552 21.488 170.552 19.712C170.552 17.936 171.044 17.276 172.328 17.276C173.624 17.276 174.104 17.912 174.104 19.676C174.104 21.452 173.624 22.124 172.328 22.124ZM180.388 16.28C179.524 16.28 178.852 16.676 178.432 17.396V14.12H177.352V22.88C178 23.036 178.732 23.12 179.344 23.12C181.624 23.12 182.8 21.824 182.8 19.568C182.8 17.48 181.924 16.28 180.388 16.28ZM179.356 22.184C179.044 22.184 178.732 22.16 178.432 22.1V19.664C178.432 17.984 178.924 17.24 180.088 17.24C181.204 17.24 181.684 17.9 181.684 19.64C181.684 21.44 181.024 22.184 179.356 22.184ZM188.484 14.84H189.936V13.244H188.484V14.84ZM188.76 17.36V22.184C188.76 23.396 187.812 24.392 185.28 24.392V25.4C188.136 25.4 189.828 24.068 189.828 22.04V16.4H185.28V17.36H188.76ZM198.284 19.508C198.284 17.444 197.336 16.28 195.548 16.28C193.568 16.28 192.452 17.72 192.452 19.904C192.452 22.004 193.58 23.12 195.416 23.12C196.244 23.12 197.06 22.904 197.78 22.484V21.452C197.108 21.872 196.352 22.124 195.524 22.124C194.312 22.124 193.676 21.572 193.58 20.108H198.272C198.284 19.904 198.284 19.724 198.284 19.508ZM195.464 17.276C196.628 17.276 197.072 17.792 197.156 19.184H193.592C193.688 17.792 194.264 17.276 195.464 17.276ZM205.935 18.788C205.935 17.252 204.831 16.28 203.259 16.28C201.363 16.28 200.235 17.588 200.235 19.88C200.235 21.944 201.363 23.12 203.199 23.12C204.039 23.12 204.855 22.892 205.563 22.46V21.416C204.795 21.932 204.159 22.124 203.343 22.124C201.891 22.124 201.351 21.452 201.351 19.712C201.351 17.924 201.843 17.24 203.235 17.24C204.351 17.24 204.819 17.672 204.819 18.788H205.935ZM213.275 16.4H210.395V14.924H209.567L209.315 16.4L207.791 16.664V17.36H209.315V20.924C209.315 22.22 210.071 23.12 211.703 23.12C212.255 23.12 212.795 23.012 213.275 22.844V21.812C212.819 22.016 212.303 22.124 211.811 22.124C210.767 22.124 210.395 21.668 210.395 20.78V17.36H213.275V16.4ZM215.899 22.628C216.667 23 217.555 23.12 218.287 23.12C220.039 23.12 220.891 22.304 220.891 21.176C220.891 18.692 216.979 19.844 216.979 18.176C216.979 17.648 217.363 17.276 218.527 17.276C219.151 17.276 219.751 17.36 220.603 17.732V16.712C219.895 16.424 219.067 16.28 218.371 16.28C216.715 16.28 215.887 17.12 215.887 18.272C215.887 20.756 219.775 19.688 219.775 21.248C219.775 21.764 219.331 22.124 218.191 22.124C217.411 22.124 216.679 21.956 215.899 21.596V22.628Z" fill="#1D1D1F"/>
<path d="M29.5 45.5V41.5C29.5 40.9477 29.9477 40.5 30.5 40.5H33.5C33.8148 40.5 34.1111 40.6482 34.3 40.9L35.2 42.1C35.3889 42.3518 35.6852 42.5 36 42.5H45.5C46.0523 42.5 46.5 42.9477 46.5 43.5V45.5M29.5 45.5V54.5C29.5 55.0523 29.9477 55.5 30.5 55.5H45.5C46.0523 55.5 46.5 55.0523 46.5 54.5V45.5M29.5 45.5H38H46.5" stroke="#1D1D1F"/>
<path d="M63.724 46.28C63.088 46.28 62.596 46.616 62.248 47.276C62.068 46.58 61.672 46.28 61.168 46.28C60.58 46.28 60.028 46.7 59.644 47.54L59.44 46.4H58.672V53H59.692V48.2C60.004 47.528 60.352 47.264 60.7 47.264C61.132 47.264 61.348 47.672 61.348 48.44V53H62.368V48.308C62.368 48.2 62.368 48.092 62.356 47.996C62.632 47.432 62.932 47.204 63.316 47.204C63.856 47.204 64.024 47.636 64.024 48.44V53H65.044V48.308C65.044 46.88 64.588 46.28 63.724 46.28ZM69.3958 53.12C71.3158 53.12 72.4198 51.812 72.4198 49.508C72.4198 47.456 71.4238 46.28 69.6358 46.28C67.7278 46.28 66.6238 47.588 66.6238 49.88C66.6238 51.944 67.6198 53.12 69.3958 53.12ZM69.5158 52.124C68.2318 52.124 67.7398 51.488 67.7398 49.712C67.7398 47.936 68.2318 47.276 69.5158 47.276C70.8118 47.276 71.2918 47.912 71.2918 49.676C71.2918 51.452 70.8118 52.124 69.5158 52.124ZM78.8116 47.324C78.3796 46.652 77.7196 46.28 76.8436 46.28C75.2476 46.28 74.3356 47.552 74.3356 49.76C74.3356 51.908 75.2476 53.12 76.8436 53.12C77.7676 53.12 78.4636 52.688 78.8956 51.872L79.0756 53H79.8796V44.12H78.8116V47.324ZM77.1316 52.16C75.9196 52.16 75.4636 51.44 75.4636 49.64C75.4636 47.9 75.9196 47.24 77.1316 47.24C78.3436 47.24 78.8116 47.96 78.8116 49.76C78.8116 51.5 78.3436 52.16 77.1316 52.16ZM87.7953 49.508C87.7953 47.444 86.8473 46.28 85.0593 46.28C83.0793 46.28 81.9633 47.72 81.9633 49.904C81.9633 52.004 83.0913 53.12 84.9273 53.12C85.7553 53.12 86.5713 52.904 87.2913 52.484V51.452C86.6193 51.872 85.8633 52.124 85.0353 52.124C83.8233 52.124 83.1873 51.572 83.0913 50.108H87.7833C87.7953 49.904 87.7953 49.724 87.7953 49.508ZM84.9753 47.276C86.1393 47.276 86.5833 47.792 86.6673 49.184H83.1033C83.1993 47.792 83.7753 47.276 84.9753 47.276ZM94.2111 52.124C93.2151 52.124 92.7711 51.476 92.7711 50.276V44.12H89.3511V45.08H91.6911V50.372C91.6911 52.22 92.5431 53.12 94.0191 53.12C94.6191 53.12 95.1951 52.976 95.7351 52.712V51.668C95.2551 51.968 94.7151 52.124 94.2111 52.124ZM97.7349 52.628C98.5029 53 99.3909 53.12 100.123 53.12C101.875 53.12 102.727 52.304 102.727 51.176C102.727 48.692 98.8149 49.844 98.8149 48.176C98.8149 47.648 99.1989 47.276 100.363 47.276C100.987 47.276 101.587 47.36 102.439 47.732V46.712C101.731 46.424 100.903 46.28 100.207 46.28C98.5509 46.28 97.7229 47.12 97.7229 48.272C97.7229 50.756 101.611 49.688 101.611 51.248C101.611 51.764 101.167 52.124 100.027 52.124C99.2469 52.124 98.5149 51.956 97.7349 51.596V52.628Z" fill="#1D1D1F"/>
<path d="M69.5 195.5V191.5C69.5 190.948 69.9477 190.5 70.5 190.5H73.5C73.8148 190.5 74.1111 190.648 74.3 190.9L75.2 192.1C75.3889 192.352 75.6852 192.5 76 192.5H85.5C86.0523 192.5 86.5 192.948 86.5 193.5V195.5M69.5 195.5V204.5C69.5 205.052 69.9477 205.5 70.5 205.5H85.5C86.0523 205.5 86.5 205.052 86.5 204.5V195.5M69.5 195.5H78H86.5" stroke="#1D1D1F"/>
<path d="M104.948 196.04C103.784 196.04 102.464 196.712 101.72 197.708L101.516 196.4H99.224V197.36H100.7V202.04H98.888V203H104.372V202.04H101.78V198.356C102.668 197.624 103.784 197.228 104.948 197.228V196.04ZM108.628 200.192C108.856 200.228 109.12 200.252 109.396 200.252C111.148 200.252 112.18 199.484 112.18 198.188C112.18 197.6 111.952 197.132 111.52 196.796L112.648 195.164H111.4L110.932 196.484C110.56 196.352 110.116 196.28 109.612 196.28C107.848 196.28 106.816 197.06 106.816 198.38C106.816 199.148 107.224 199.712 107.956 200.012L107.368 201.716L107.992 202.352C109.876 202.352 111.652 202.52 111.652 203.312C111.652 203.984 110.524 204.38 106.648 204.392V205.4C110.98 205.4 112.78 204.692 112.78 203.264C112.78 201.944 111.256 201.488 108.424 201.452L108.628 200.192ZM109.504 197.276C110.596 197.276 111.064 197.564 111.064 198.26C111.064 198.944 110.584 199.244 109.504 199.244C108.412 199.244 107.944 198.944 107.944 198.26C107.944 197.564 108.412 197.276 109.504 197.276ZM117.576 196.28C116.712 196.28 116.04 196.676 115.62 197.396V194.12H114.54V202.88C115.188 203.036 115.92 203.12 116.532 203.12C118.812 203.12 119.988 201.824 119.988 199.568C119.988 197.48 119.112 196.28 117.576 196.28ZM116.544 202.184C116.232 202.184 115.92 202.16 115.62 202.1V199.664C115.62 197.984 116.112 197.24 117.276 197.24C118.392 197.24 118.872 197.9 118.872 199.64C118.872 201.44 118.212 202.184 116.544 202.184Z" fill="#1D1D1F"/>
<path d="M83.724 106.28C83.088 106.28 82.596 106.616 82.248 107.276C82.068 106.58 81.672 106.28 81.168 106.28C80.58 106.28 80.028 106.7 79.644 107.54L79.44 106.4H78.672V113H79.692V108.2C80.004 107.528 80.352 107.264 80.7 107.264C81.132 107.264 81.348 107.672 81.348 108.44V113H82.368V108.308C82.368 108.2 82.368 108.092 82.356 107.996C82.632 107.432 82.932 107.204 83.316 107.204C83.856 107.204 84.024 107.636 84.024 108.44V113H85.044V108.308C85.044 106.88 84.588 106.28 83.724 106.28ZM89.3958 113.12C91.3158 113.12 92.4198 111.812 92.4198 109.508C92.4198 107.456 91.4238 106.28 89.6358 106.28C87.7278 106.28 86.6238 107.588 86.6238 109.88C86.6238 111.944 87.6198 113.12 89.3958 113.12ZM89.5158 112.124C88.2318 112.124 87.7398 111.488 87.7398 109.712C87.7398 107.936 88.2318 107.276 89.5158 107.276C90.8118 107.276 91.2918 107.912 91.2918 109.676C91.2918 111.452 90.8118 112.124 89.5158 112.124ZM98.8116 107.324C98.3796 106.652 97.7196 106.28 96.8436 106.28C95.2476 106.28 94.3356 107.552 94.3356 109.76C94.3356 111.908 95.2476 113.12 96.8436 113.12C97.7676 113.12 98.4636 112.688 98.8956 111.872L99.0756 113H99.8796V104.12H98.8116V107.324ZM97.1316 112.16C95.9196 112.16 95.4636 111.44 95.4636 109.64C95.4636 107.9 95.9196 107.24 97.1316 107.24C98.3436 107.24 98.8116 107.96 98.8116 109.76C98.8116 111.5 98.3436 112.16 97.1316 112.16ZM107.795 109.508C107.795 107.444 106.847 106.28 105.059 106.28C103.079 106.28 101.963 107.72 101.963 109.904C101.963 112.004 103.091 113.12 104.927 113.12C105.755 113.12 106.571 112.904 107.291 112.484V111.452C106.619 111.872 105.863 112.124 105.035 112.124C103.823 112.124 103.187 111.572 103.091 110.108H107.783C107.795 109.904 107.795 109.724 107.795 109.508ZM104.975 107.276C106.139 107.276 106.583 107.792 106.667 109.184H103.103C103.199 107.792 103.775 107.276 104.975 107.276ZM114.211 112.124C113.215 112.124 112.771 111.476 112.771 110.276V104.12H109.351V105.08H111.691V110.372C111.691 112.22 112.543 113.12 114.019 113.12C114.619 113.12 115.195 112.976 115.735 112.712V111.668C115.255 111.968 114.715 112.124 114.211 112.124ZM117.735 112.628C118.503 113 119.391 113.12 120.123 113.12C121.875 113.12 122.727 112.304 122.727 111.176C122.727 108.692 118.815 109.844 118.815 108.176C118.815 107.648 119.199 107.276 120.363 107.276C120.987 107.276 121.587 107.36 122.439 107.732V106.712C121.731 106.424 120.903 106.28 120.207 106.28C118.551 106.28 117.723 107.12 117.723 108.272C117.723 110.756 121.611 109.688 121.611 111.248C121.611 111.764 121.167 112.124 120.027 112.124C119.247 112.124 118.515 111.956 117.735 111.596V112.628ZM124.691 113.888H131.111V113H124.691V113.888ZM135.15 103.244V104.84H136.602V103.244H135.15ZM136.494 106.4H133.398V107.36H135.414V112.04H133.038V113H138.318V112.04H136.494V106.4ZM144.158 106.28C143.114 106.28 142.274 106.868 141.602 107.948L141.398 106.4H140.594V113H141.662V108.728C142.55 107.6 143.102 107.204 143.81 107.204C144.578 107.204 144.89 107.624 144.89 108.416V113H145.958V108.272C145.958 106.928 145.274 106.28 144.158 106.28ZM153.922 103.988C150.874 103.988 149.758 104.66 149.758 106.52V106.664H148.054V107.588H149.758V112.988H150.826V107.588H153.91V106.664H150.826V106.532C150.826 105.248 151.39 104.996 153.922 104.996V103.988ZM158.478 113.12C160.398 113.12 161.502 111.812 161.502 109.508C161.502 107.456 160.506 106.28 158.718 106.28C156.81 106.28 155.706 107.588 155.706 109.88C155.706 111.944 156.702 113.12 158.478 113.12ZM158.598 112.124C157.314 112.124 156.822 111.488 156.822 109.712C156.822 107.936 157.314 107.276 158.598 107.276C159.894 107.276 160.374 107.912 160.374 109.676C160.374 111.452 159.894 112.124 158.598 112.124ZM165.446 113H167.102V111.224H165.446V113ZM174.753 104.84H176.205V103.244H174.753V104.84ZM175.029 107.36V112.184C175.029 113.396 174.081 114.392 171.549 114.392V115.4C174.405 115.4 176.097 114.068 176.097 112.04V106.4H171.549V107.36H175.029ZM179.141 112.628C179.909 113 180.797 113.12 181.529 113.12C183.281 113.12 184.133 112.304 184.133 111.176C184.133 108.692 180.221 109.844 180.221 108.176C180.221 107.648 180.605 107.276 181.769 107.276C182.393 107.276 182.993 107.36 183.845 107.732V106.712C183.137 106.424 182.309 106.28 181.613 106.28C179.957 106.28 179.129 107.12 179.129 108.272C179.129 110.756 183.017 109.688 183.017 111.248C183.017 111.764 182.573 112.124 181.433 112.124C180.653 112.124 179.921 111.956 179.141 111.596V112.628ZM189.181 113.12C191.101 113.12 192.205 111.812 192.205 109.508C192.205 107.456 191.209 106.28 189.421 106.28C187.513 106.28 186.409 107.588 186.409 109.88C186.409 111.944 187.405 113.12 189.181 113.12ZM189.301 112.124C188.017 112.124 187.525 111.488 187.525 109.712C187.525 107.936 188.017 107.276 189.301 107.276C190.597 107.276 191.077 107.912 191.077 109.676C191.077 111.452 190.597 112.124 189.301 112.124ZM197.889 106.28C196.845 106.28 196.005 106.868 195.333 107.948L195.129 106.4H194.325V113H195.393V108.728C196.281 107.6 196.833 107.204 197.541 107.204C198.309 107.204 198.621 107.624 198.621 108.416V113H199.689V108.272C199.689 106.928 199.005 106.28 197.889 106.28Z" fill="#1D1D1F"/>
<path d="M64.5 103.5V115.5C64.5 116.052 64.0523 116.5 63.5 116.5H52.5C51.9477 116.5 51.5 116.052 51.5 115.5V100.5C51.5 99.9477 51.9477 99.5 52.5 99.5H60M64.5 103.5L60 99.5M64.5 103.5H61C60.4477 103.5 60 103.052 60 102.5V99.5" stroke="#1D1D1F"/>
<path d="M99.356 262.628C100.124 263 101.012 263.12 101.744 263.12C103.496 263.12 104.348 262.304 104.348 261.176C104.348 258.692 100.436 259.844 100.436 258.176C100.436 257.648 100.82 257.276 101.984 257.276C102.608 257.276 103.208 257.36 104.06 257.732V256.712C103.352 256.424 102.524 256.28 101.828 256.28C100.172 256.28 99.344 257.12 99.344 258.272C99.344 260.756 103.232 259.688 103.232 261.248C103.232 261.764 102.788 262.124 101.648 262.124C100.868 262.124 100.136 261.956 99.356 261.596V262.628ZM112.42 258.788C112.42 257.252 111.316 256.28 109.744 256.28C107.848 256.28 106.72 257.588 106.72 259.88C106.72 261.944 107.848 263.12 109.684 263.12C110.524 263.12 111.34 262.892 112.048 262.46V261.416C111.28 261.932 110.644 262.124 109.828 262.124C108.376 262.124 107.836 261.452 107.836 259.712C107.836 257.924 108.328 257.24 109.72 257.24C110.836 257.24 111.304 257.672 111.304 258.788H112.42ZM120.12 259.508C120.12 257.444 119.172 256.28 117.384 256.28C115.404 256.28 114.288 257.72 114.288 259.904C114.288 262.004 115.416 263.12 117.252 263.12C118.08 263.12 118.896 262.904 119.616 262.484V261.452C118.944 261.872 118.188 262.124 117.36 262.124C116.148 262.124 115.512 261.572 115.416 260.108H120.108C120.12 259.904 120.12 259.724 120.12 259.508ZM117.3 257.276C118.464 257.276 118.908 257.792 118.992 259.184H115.428C115.524 257.792 116.1 257.276 117.3 257.276ZM125.779 256.28C124.735 256.28 123.895 256.868 123.223 257.948L123.019 256.4H122.215V263H123.283V258.728C124.171 257.6 124.723 257.204 125.431 257.204C126.199 257.204 126.511 257.624 126.511 258.416V263H127.579V258.272C127.579 256.928 126.895 256.28 125.779 256.28ZM135.471 259.508C135.471 257.444 134.523 256.28 132.735 256.28C130.755 256.28 129.639 257.72 129.639 259.904C129.639 262.004 130.767 263.12 132.603 263.12C133.431 263.12 134.247 262.904 134.967 262.484V261.452C134.295 261.872 133.539 262.124 132.711 262.124C131.499 262.124 130.863 261.572 130.767 260.108H135.459C135.471 259.904 135.471 259.724 135.471 259.508ZM132.651 257.276C133.815 257.276 134.259 257.792 134.343 259.184H130.779C130.875 257.792 131.451 257.276 132.651 257.276ZM137.015 263.888H143.435V263H137.015V263.888ZM150.799 258.788C150.799 257.252 149.695 256.28 148.123 256.28C146.227 256.28 145.099 257.588 145.099 259.88C145.099 261.944 146.227 263.12 148.063 263.12C148.903 263.12 149.719 262.892 150.427 262.46V261.416C149.659 261.932 149.023 262.124 148.207 262.124C146.755 262.124 146.215 261.452 146.215 259.712C146.215 257.924 146.707 257.24 148.099 257.24C149.215 257.24 149.683 257.672 149.683 258.788H150.799ZM158.018 260.972V258.38C158.018 257.072 157.178 256.28 155.714 256.28C154.982 256.28 154.154 256.472 153.374 256.808V257.84C154.142 257.456 154.766 257.276 155.582 257.276C156.506 257.276 156.938 257.672 156.938 258.488V259.052C153.89 259.064 152.786 259.892 152.786 261.32C152.786 262.448 153.53 263.12 154.79 263.12C155.906 263.12 156.638 262.64 157.082 261.692L157.322 263H158.39L158.018 260.972ZM155.042 262.124C154.274 262.124 153.902 261.764 153.902 261.128C153.902 260.144 154.79 259.784 156.938 259.772V260.3C156.938 261.344 156.182 262.124 155.042 262.124ZM165.13 256.28C164.494 256.28 164.002 256.616 163.654 257.276C163.474 256.58 163.078 256.28 162.574 256.28C161.986 256.28 161.434 256.7 161.05 257.54L160.846 256.4H160.078V263H161.098V258.2C161.41 257.528 161.758 257.264 162.106 257.264C162.538 257.264 162.754 257.672 162.754 258.44V263H163.774V258.308C163.774 258.2 163.774 258.092 163.762 257.996C164.038 257.432 164.338 257.204 164.722 257.204C165.262 257.204 165.43 257.636 165.43 258.44V263H166.45V258.308C166.45 256.88 165.994 256.28 165.13 256.28ZM173.85 259.508C173.85 257.444 172.902 256.28 171.114 256.28C169.134 256.28 168.018 257.72 168.018 259.904C168.018 262.004 169.146 263.12 170.982 263.12C171.81 263.12 172.626 262.904 173.346 262.484V261.452C172.674 261.872 171.918 262.124 171.09 262.124C169.878 262.124 169.242 261.572 169.146 260.108H173.838C173.85 259.904 173.85 259.724 173.85 259.508ZM171.03 257.276C172.194 257.276 172.638 257.792 172.722 259.184H169.158C169.254 257.792 169.83 257.276 171.03 257.276ZM181.706 256.04C180.542 256.04 179.222 256.712 178.478 257.708L178.274 256.4H175.982V257.36H177.458V262.04H175.646V263H181.13V262.04H178.538V258.356C179.426 257.624 180.542 257.228 181.706 257.228V256.04ZM188.722 260.972V258.38C188.722 257.072 187.882 256.28 186.418 256.28C185.686 256.28 184.858 256.472 184.078 256.808V257.84C184.846 257.456 185.47 257.276 186.286 257.276C187.21 257.276 187.642 257.672 187.642 258.488V259.052C184.594 259.064 183.49 259.892 183.49 261.32C183.49 262.448 184.234 263.12 185.494 263.12C186.61 263.12 187.342 262.64 187.786 261.692L188.026 263H189.094L188.722 260.972ZM185.746 262.124C184.978 262.124 184.606 261.764 184.606 261.128C184.606 260.144 185.494 259.784 187.642 259.772V260.3C187.642 261.344 186.886 262.124 185.746 262.124ZM193.121 263H194.777V261.224H193.121V263ZM202.429 254.84H203.881V253.244H202.429V254.84ZM202.705 257.36V262.184C202.705 263.396 201.757 264.392 199.225 264.392V265.4C202.081 265.4 203.773 264.068 203.773 262.04V256.4H199.225V257.36H202.705ZM206.817 262.628C207.585 263 208.473 263.12 209.205 263.12C210.957 263.12 211.809 262.304 211.809 261.176C211.809 258.692 207.897 259.844 207.897 258.176C207.897 257.648 208.281 257.276 209.445 257.276C210.069 257.276 210.669 257.36 211.521 257.732V256.712C210.813 256.424 209.985 256.28 209.289 256.28C207.633 256.28 206.805 257.12 206.805 258.272C206.805 260.756 210.693 259.688 210.693 261.248C210.693 261.764 210.249 262.124 209.109 262.124C208.329 262.124 207.597 261.956 206.817 261.596V262.628ZM216.857 263.12C218.777 263.12 219.881 261.812 219.881 259.508C219.881 257.456 218.885 256.28 217.097 256.28C215.189 256.28 214.085 257.588 214.085 259.88C214.085 261.944 215.081 263.12 216.857 263.12ZM216.977 262.124C215.693 262.124 215.201 261.488 215.201 259.712C215.201 257.936 215.693 257.276 216.977 257.276C218.273 257.276 218.753 257.912 218.753 259.676C218.753 261.452 218.273 262.124 216.977 262.124ZM225.565 256.28C224.521 256.28 223.681 256.868 223.009 257.948L222.805 256.4H222.001V263H223.069V258.728C223.957 257.6 224.509 257.204 225.217 257.204C225.985 257.204 226.297 257.624 226.297 258.416V263H227.365V258.272C227.365 256.928 226.681 256.28 225.565 256.28Z" fill="#1D1D1F"/>
<path d="M84.5 253.5V265.5C84.5 266.052 84.0523 266.5 83.5 266.5H72.5C71.9477 266.5 71.5 266.052 71.5 265.5V250.5C71.5 249.948 71.9477 249.5 72.5 249.5H80M84.5 253.5L80 249.5M84.5 253.5H81C80.4477 253.5 80 253.052 80 252.5V249.5" stroke="#1D1D1F"/>
<path d="M99.356 292.628C100.124 293 101.012 293.12 101.744 293.12C103.496 293.12 104.348 292.304 104.348 291.176C104.348 288.692 100.436 289.844 100.436 288.176C100.436 287.648 100.82 287.276 101.984 287.276C102.608 287.276 103.208 287.36 104.06 287.732V286.712C103.352 286.424 102.524 286.28 101.828 286.28C100.172 286.28 99.344 287.12 99.344 288.272C99.344 290.756 103.232 289.688 103.232 291.248C103.232 291.764 102.788 292.124 101.648 292.124C100.868 292.124 100.136 291.956 99.356 291.596V292.628ZM112.42 288.788C112.42 287.252 111.316 286.28 109.744 286.28C107.848 286.28 106.72 287.588 106.72 289.88C106.72 291.944 107.848 293.12 109.684 293.12C110.524 293.12 111.34 292.892 112.048 292.46V291.416C111.28 291.932 110.644 292.124 109.828 292.124C108.376 292.124 107.836 291.452 107.836 289.712C107.836 287.924 108.328 287.24 109.72 287.24C110.836 287.24 111.304 287.672 111.304 288.788H112.42ZM120.12 289.508C120.12 287.444 119.172 286.28 117.384 286.28C115.404 286.28 114.288 287.72 114.288 289.904C114.288 292.004 115.416 293.12 117.252 293.12C118.08 293.12 118.896 292.904 119.616 292.484V291.452C118.944 291.872 118.188 292.124 117.36 292.124C116.148 292.124 115.512 291.572 115.416 290.108H120.108C120.12 289.904 120.12 289.724 120.12 289.508ZM117.3 287.276C118.464 287.276 118.908 287.792 118.992 289.184H115.428C115.524 287.792 116.1 287.276 117.3 287.276ZM125.779 286.28C124.735 286.28 123.895 286.868 123.223 287.948L123.019 286.4H122.215V293H123.283V288.728C124.171 287.6 124.723 287.204 125.431 287.204C126.199 287.204 126.511 287.624 126.511 288.416V293H127.579V288.272C127.579 286.928 126.895 286.28 125.779 286.28ZM135.471 289.508C135.471 287.444 134.523 286.28 132.735 286.28C130.755 286.28 129.639 287.72 129.639 289.904C129.639 292.004 130.767 293.12 132.603 293.12C133.431 293.12 134.247 292.904 134.967 292.484V291.452C134.295 291.872 133.539 292.124 132.711 292.124C131.499 292.124 130.863 291.572 130.767 290.108H135.459C135.471 289.904 135.471 289.724 135.471 289.508ZM132.651 287.276C133.815 287.276 134.259 287.792 134.343 289.184H130.779C130.875 287.792 131.451 287.276 132.651 287.276ZM137.015 293.888H143.435V293H137.015V293.888ZM147.007 290.192C147.235 290.228 147.499 290.252 147.775 290.252C149.527 290.252 150.559 289.484 150.559 288.188C150.559 287.6 150.331 287.132 149.899 286.796L151.027 285.164H149.779L149.311 286.484C148.939 286.352 148.495 286.28 147.991 286.28C146.227 286.28 145.195 287.06 145.195 288.38C145.195 289.148 145.603 289.712 146.335 290.012L145.747 291.716L146.371 292.352C148.255 292.352 150.031 292.52 150.031 293.312C150.031 293.984 148.903 294.38 145.027 294.392V295.4C149.359 295.4 151.159 294.692 151.159 293.264C151.159 291.944 149.635 291.488 146.803 291.452L147.007 290.192ZM147.883 287.276C148.975 287.276 149.443 287.564 149.443 288.26C149.443 288.944 148.963 289.244 147.883 289.244C146.791 289.244 146.323 288.944 146.323 288.26C146.323 287.564 146.791 287.276 147.883 287.276ZM158.138 286.4H155.258V284.924H154.43L154.178 286.4L152.654 286.664V287.36H154.178V290.924C154.178 292.22 154.934 293.12 156.566 293.12C157.118 293.12 157.658 293.012 158.138 292.844V291.812C157.682 292.016 157.166 292.124 156.674 292.124C155.63 292.124 155.258 291.668 155.258 290.78V287.36H158.138V286.4ZM162.418 293H164.074V291.224H162.418V293ZM171.726 284.84H173.178V283.244H171.726V284.84ZM172.002 287.36V292.184C172.002 293.396 171.054 294.392 168.522 294.392V295.4C171.378 295.4 173.07 294.068 173.07 292.04V286.4H168.522V287.36H172.002ZM176.114 292.628C176.882 293 177.77 293.12 178.502 293.12C180.254 293.12 181.106 292.304 181.106 291.176C181.106 288.692 177.194 289.844 177.194 288.176C177.194 287.648 177.578 287.276 178.742 287.276C179.366 287.276 179.966 287.36 180.818 287.732V286.712C180.11 286.424 179.282 286.28 178.586 286.28C176.93 286.28 176.102 287.12 176.102 288.272C176.102 290.756 179.99 289.688 179.99 291.248C179.99 291.764 179.546 292.124 178.406 292.124C177.626 292.124 176.894 291.956 176.114 291.596V292.628ZM186.154 293.12C188.074 293.12 189.178 291.812 189.178 289.508C189.178 287.456 188.182 286.28 186.394 286.28C184.486 286.28 183.382 287.588 183.382 289.88C183.382 291.944 184.378 293.12 186.154 293.12ZM186.274 292.124C184.99 292.124 184.498 291.488 184.498 289.712C184.498 287.936 184.99 287.276 186.274 287.276C187.57 287.276 188.05 287.912 188.05 289.676C188.05 291.452 187.57 292.124 186.274 292.124ZM194.861 286.28C193.817 286.28 192.977 286.868 192.305 287.948L192.101 286.4H191.297V293H192.365V288.728C193.253 287.6 193.805 287.204 194.513 287.204C195.281 287.204 195.593 287.624 195.593 288.416V293H196.661V288.272C196.661 286.928 195.977 286.28 194.861 286.28Z" fill="#1D1D1F"/>
<path d="M84.5 283.5V295.5C84.5 296.052 84.0523 296.5 83.5 296.5H72.5C71.9477 296.5 71.5 296.052 71.5 295.5V280.5C71.5 279.948 71.9477 279.5 72.5 279.5H80M84.5 283.5L80 279.5M84.5 283.5H81C80.4477 283.5 80 283.052 80 282.5V279.5" stroke="#1D1D1F"/>
<path d="M99.356 321.628C100.124 322 101.012 322.12 101.744 322.12C103.496 322.12 104.348 321.304 104.348 320.176C104.348 317.692 100.436 318.844 100.436 317.176C100.436 316.648 100.82 316.276 101.984 316.276C102.608 316.276 103.208 316.36 104.06 316.732V315.712C103.352 315.424 102.524 315.28 101.828 315.28C100.172 315.28 99.344 316.12 99.344 317.272C99.344 319.756 103.232 318.688 103.232 320.248C103.232 320.764 102.788 321.124 101.648 321.124C100.868 321.124 100.136 320.956 99.356 320.596V321.628ZM112.42 317.788C112.42 316.252 111.316 315.28 109.744 315.28C107.848 315.28 106.72 316.588 106.72 318.88C106.72 320.944 107.848 322.12 109.684 322.12C110.524 322.12 111.34 321.892 112.048 321.46V320.416C111.28 320.932 110.644 321.124 109.828 321.124C108.376 321.124 107.836 320.452 107.836 318.712C107.836 316.924 108.328 316.24 109.72 316.24C110.836 316.24 111.304 316.672 111.304 317.788H112.42ZM120.12 318.508C120.12 316.444 119.172 315.28 117.384 315.28C115.404 315.28 114.288 316.72 114.288 318.904C114.288 321.004 115.416 322.12 117.252 322.12C118.08 322.12 118.896 321.904 119.616 321.484V320.452C118.944 320.872 118.188 321.124 117.36 321.124C116.148 321.124 115.512 320.572 115.416 319.108H120.108C120.12 318.904 120.12 318.724 120.12 318.508ZM117.3 316.276C118.464 316.276 118.908 316.792 118.992 318.184H115.428C115.524 316.792 116.1 316.276 117.3 316.276ZM125.779 315.28C124.735 315.28 123.895 315.868 123.223 316.948L123.019 315.4H122.215V322H123.283V317.728C124.171 316.6 124.723 316.204 125.431 316.204C126.199 316.204 126.511 316.624 126.511 317.416V322H127.579V317.272C127.579 315.928 126.895 315.28 125.779 315.28ZM135.471 318.508C135.471 316.444 134.523 315.28 132.735 315.28C130.755 315.28 129.639 316.72 129.639 318.904C129.639 321.004 130.767 322.12 132.603 322.12C133.431 322.12 134.247 321.904 134.967 321.484V320.452C134.295 320.872 133.539 321.124 132.711 321.124C131.499 321.124 130.863 320.572 130.767 319.108H135.459C135.471 318.904 135.471 318.724 135.471 318.508ZM132.651 316.276C133.815 316.276 134.259 316.792 134.343 318.184H130.779C130.875 316.792 131.451 316.276 132.651 316.276ZM137.015 322.888H143.435V322H137.015V322.888ZM147.007 319.192C147.235 319.228 147.499 319.252 147.775 319.252C149.527 319.252 150.559 318.484 150.559 317.188C150.559 316.6 150.331 316.132 149.899 315.796L151.027 314.164H149.779L149.311 315.484C148.939 315.352 148.495 315.28 147.991 315.28C146.227 315.28 145.195 316.06 145.195 317.38C145.195 318.148 145.603 318.712 146.335 319.012L145.747 320.716L146.371 321.352C148.255 321.352 150.031 321.52 150.031 322.312C150.031 322.984 148.903 323.38 145.027 323.392V324.4C149.359 324.4 151.159 323.692 151.159 322.264C151.159 320.944 149.635 320.488 146.803 320.452L147.007 319.192ZM147.883 316.276C148.975 316.276 149.443 316.564 149.443 317.26C149.443 317.944 148.963 318.244 147.883 318.244C146.791 318.244 146.323 317.944 146.323 317.26C146.323 316.564 146.791 316.276 147.883 316.276ZM158.138 315.4H155.258V313.924H154.43L154.178 315.4L152.654 315.664V316.36H154.178V319.924C154.178 321.22 154.934 322.12 156.566 322.12C157.118 322.12 157.658 322.012 158.138 321.844V320.812C157.682 321.016 157.166 321.124 156.674 321.124C155.63 321.124 155.258 320.668 155.258 319.78V316.36H158.138V315.4ZM160.042 322.888H166.462V322H160.042V322.888ZM172.938 315.4C172.926 317.344 172.746 318.952 172.302 321.064L171.066 317.356H170.73L169.494 321.088C169.062 318.964 168.87 317.344 168.858 315.4H167.814C167.826 317.464 168.198 319.912 168.81 322H170.058L170.898 319.48L171.75 322H172.998C173.61 319.912 173.97 317.464 173.994 315.4H172.938ZM178.478 322.12C180.398 322.12 181.502 320.812 181.502 318.508C181.502 316.456 180.506 315.28 178.718 315.28C176.81 315.28 175.706 316.588 175.706 318.88C175.706 320.944 176.702 322.12 178.478 322.12ZM178.598 321.124C177.314 321.124 176.822 320.488 176.822 318.712C176.822 316.936 177.314 316.276 178.598 316.276C179.894 316.276 180.374 316.912 180.374 318.676C180.374 320.452 179.894 321.124 178.598 321.124ZM189.382 315.04C188.218 315.04 186.898 315.712 186.154 316.708L185.95 315.4H183.658V316.36H185.134V321.04H183.322V322H188.806V321.04H186.214V317.356C187.102 316.624 188.218 316.228 189.382 316.228V315.04ZM195.617 321.124C194.621 321.124 194.177 320.476 194.177 319.276V313.12H190.757V314.08H193.097V319.372C193.097 321.22 193.949 322.12 195.425 322.12C196.025 322.12 196.601 321.976 197.141 321.712V320.668C196.661 320.968 196.121 321.124 195.617 321.124ZM203.245 316.324C202.813 315.652 202.153 315.28 201.277 315.28C199.681 315.28 198.769 316.552 198.769 318.76C198.769 320.908 199.681 322.12 201.277 322.12C202.201 322.12 202.897 321.688 203.329 320.872L203.509 322H204.313V313.12H203.245V316.324ZM201.565 321.16C200.353 321.16 199.897 320.44 199.897 318.64C199.897 316.9 200.353 316.24 201.565 316.24C202.777 316.24 203.245 316.96 203.245 318.76C203.245 320.5 202.777 321.16 201.565 321.16ZM208.473 322H210.129V320.224H208.473V322ZM217.781 313.84H219.233V312.244H217.781V313.84ZM218.057 316.36V321.184C218.057 322.396 217.109 323.392 214.577 323.392V324.4C217.433 324.4 219.125 323.068 219.125 321.04V315.4H214.577V316.36H218.057ZM222.169 321.628C222.937 322 223.825 322.12 224.557 322.12C226.309 322.12 227.161 321.304 227.161 320.176C227.161 317.692 223.249 318.844 223.249 317.176C223.249 316.648 223.633 316.276 224.797 316.276C225.421 316.276 226.021 316.36 226.872 316.732V315.712C226.165 315.424 225.337 315.28 224.641 315.28C222.985 315.28 222.157 316.12 222.157 317.272C222.157 319.756 226.045 318.688 226.045 320.248C226.045 320.764 225.601 321.124 224.461 321.124C223.681 321.124 222.949 320.956 222.169 320.596V321.628ZM232.208 322.12C234.128 322.12 235.232 320.812 235.232 318.508C235.232 316.456 234.236 315.28 232.448 315.28C230.54 315.28 229.436 316.588 229.436 318.88C229.436 320.944 230.432 322.12 232.208 322.12ZM232.328 321.124C231.044 321.124 230.552 320.488 230.552 318.712C230.552 316.936 231.044 316.276 232.328 316.276C233.624 316.276 234.104 316.912 234.104 318.676C234.104 320.452 233.624 321.124 232.328 321.124ZM240.916 315.28C239.872 315.28 239.032 315.868 238.36 316.948L238.156 315.4H237.352V322H238.42V317.728C239.308 316.6 239.86 316.204 240.568 316.204C241.336 316.204 241.648 316.624 241.648 317.416V322H242.716V317.272C242.716 315.928 242.032 315.28 240.916 315.28Z" fill="#1D1D1F"/>
<path d="M84.5 312.5V324.5C84.5 325.052 84.0523 325.5 83.5 325.5H72.5C71.9477 325.5 71.5 325.052 71.5 324.5V309.5C71.5 308.948 71.9477 308.5 72.5 308.5H80M84.5 312.5L80 308.5M84.5 312.5H81C80.4477 312.5 80 312.052 80 311.5V308.5" stroke="#1D1D1F"/>
<path d="M99.356 351.628C100.124 352 101.012 352.12 101.744 352.12C103.496 352.12 104.348 351.304 104.348 350.176C104.348 347.692 100.436 348.844 100.436 347.176C100.436 346.648 100.82 346.276 101.984 346.276C102.608 346.276 103.208 346.36 104.06 346.732V345.712C103.352 345.424 102.524 345.28 101.828 345.28C100.172 345.28 99.344 346.12 99.344 347.272C99.344 349.756 103.232 348.688 103.232 350.248C103.232 350.764 102.788 351.124 101.648 351.124C100.868 351.124 100.136 350.956 99.356 350.596V351.628ZM112.42 347.788C112.42 346.252 111.316 345.28 109.744 345.28C107.848 345.28 106.72 346.588 106.72 348.88C106.72 350.944 107.848 352.12 109.684 352.12C110.524 352.12 111.34 351.892 112.048 351.46V350.416C111.28 350.932 110.644 351.124 109.828 351.124C108.376 351.124 107.836 350.452 107.836 348.712C107.836 346.924 108.328 346.24 109.72 346.24C110.836 346.24 111.304 346.672 111.304 347.788H112.42ZM120.12 348.508C120.12 346.444 119.172 345.28 117.384 345.28C115.404 345.28 114.288 346.72 114.288 348.904C114.288 351.004 115.416 352.12 117.252 352.12C118.08 352.12 118.896 351.904 119.616 351.484V350.452C118.944 350.872 118.188 351.124 117.36 351.124C116.148 351.124 115.512 350.572 115.416 349.108H120.108C120.12 348.904 120.12 348.724 120.12 348.508ZM117.3 346.276C118.464 346.276 118.908 346.792 118.992 348.184H115.428C115.524 346.792 116.1 346.276 117.3 346.276ZM125.779 345.28C124.735 345.28 123.895 345.868 123.223 346.948L123.019 345.4H122.215V352H123.283V347.728C124.171 346.6 124.723 346.204 125.431 346.204C126.199 346.204 126.511 346.624 126.511 347.416V352H127.579V347.272C127.579 345.928 126.895 345.28 125.779 345.28ZM135.471 348.508C135.471 346.444 134.523 345.28 132.735 345.28C130.755 345.28 129.639 346.72 129.639 348.904C129.639 351.004 130.767 352.12 132.603 352.12C133.431 352.12 134.247 351.904 134.967 351.484V350.452C134.295 350.872 133.539 351.124 132.711 351.124C131.499 351.124 130.863 350.572 130.767 349.108H135.459C135.471 348.904 135.471 348.724 135.471 348.508ZM132.651 346.276C133.815 346.276 134.259 346.792 134.343 348.184H130.779C130.875 346.792 131.451 346.276 132.651 346.276ZM137.015 352.888H143.435V352H137.015V352.888ZM147.475 342.244V343.84H148.927V342.244H147.475ZM148.819 345.4H145.723V346.36H147.739V351.04H145.363V352H150.643V351.04H148.819V345.4ZM156.482 345.28C155.438 345.28 154.598 345.868 153.926 346.948L153.722 345.4H152.918V352H153.986V347.728C154.874 346.6 155.426 346.204 156.134 346.204C156.902 346.204 157.214 346.624 157.214 347.416V352H158.282V347.272C158.282 345.928 157.598 345.28 156.482 345.28ZM166.246 342.988C163.198 342.988 162.082 343.66 162.082 345.52V345.664H160.378V346.588H162.082V351.988H163.15V346.588H166.234V345.664H163.15V345.532C163.15 344.248 163.714 343.996 166.246 343.996V342.988ZM170.802 352.12C172.722 352.12 173.826 350.812 173.826 348.508C173.826 346.456 172.83 345.28 171.042 345.28C169.134 345.28 168.03 346.588 168.03 348.88C168.03 350.944 169.026 352.12 170.802 352.12ZM170.922 351.124C169.638 351.124 169.146 350.488 169.146 348.712C169.146 346.936 169.638 346.276 170.922 346.276C172.218 346.276 172.698 346.912 172.698 348.676C172.698 350.452 172.218 351.124 170.922 351.124ZM177.77 352H179.426V350.224H177.77V352ZM187.078 343.84H188.53V342.244H187.078V343.84ZM187.354 346.36V351.184C187.354 352.396 186.406 353.392 183.874 353.392V354.4C186.73 354.4 188.422 353.068 188.422 351.04V345.4H183.874V346.36H187.354ZM191.465 351.628C192.233 352 193.121 352.12 193.853 352.12C195.605 352.12 196.457 351.304 196.457 350.176C196.457 347.692 192.545 348.844 192.545 347.176C192.545 346.648 192.929 346.276 194.093 346.276C194.717 346.276 195.317 346.36 196.169 346.732V345.712C195.461 345.424 194.633 345.28 193.937 345.28C192.281 345.28 191.453 346.12 191.453 347.272C191.453 349.756 195.341 348.688 195.341 350.248C195.341 350.764 194.897 351.124 193.757 351.124C192.977 351.124 192.245 350.956 191.465 350.596V351.628ZM201.505 352.12C203.425 352.12 204.529 350.812 204.529 348.508C204.529 346.456 203.533 345.28 201.745 345.28C199.837 345.28 198.733 346.588 198.733 348.88C198.733 350.944 199.729 352.12 201.505 352.12ZM201.625 351.124C200.341 351.124 199.849 350.488 199.849 348.712C199.849 346.936 200.341 346.276 201.625 346.276C202.921 346.276 203.401 346.912 203.401 348.676C203.401 350.452 202.921 351.124 201.625 351.124ZM210.213 345.28C209.169 345.28 208.329 345.868 207.657 346.948L207.453 345.4H206.649V352H207.717V347.728C208.605 346.6 209.157 346.204 209.865 346.204C210.633 346.204 210.945 346.624 210.945 347.416V352H212.013V347.272C212.013 345.928 211.329 345.28 210.213 345.28Z" fill="#1D1D1F"/>
<path d="M84.5 342.5V354.5C84.5 355.052 84.0523 355.5 83.5 355.5H72.5C71.9477 355.5 71.5 355.052 71.5 354.5V339.5C71.5 338.948 71.9477 338.5 72.5 338.5H80M84.5 342.5L80 338.5M84.5 342.5H81C80.4477 342.5 80 342.052 80 341.5V338.5" stroke="#1D1D1F"/>
<path d="M81.72 83.12C83.64 83.12 84.744 81.812 84.744 79.508C84.744 77.456 83.748 76.28 81.96 76.28C80.052 76.28 78.948 77.588 78.948 79.88C78.948 81.944 79.944 83.12 81.72 83.12ZM81.84 82.124C80.556 82.124 80.064 81.488 80.064 79.712C80.064 77.936 80.556 77.276 81.84 77.276C83.136 77.276 83.616 77.912 83.616 79.676C83.616 81.452 83.136 82.124 81.84 82.124ZM89.8998 76.28C89.0358 76.28 88.3638 76.676 87.9438 77.396V74.12H86.8638V82.88C87.5118 83.036 88.2438 83.12 88.8558 83.12C91.1358 83.12 92.3118 81.824 92.3118 79.568C92.3118 77.48 91.4358 76.28 89.8998 76.28ZM88.8678 82.184C88.5558 82.184 88.2438 82.16 87.9438 82.1V79.664C87.9438 77.984 88.4358 77.24 89.5998 77.24C90.7158 77.24 91.1958 77.9 91.1958 79.64C91.1958 81.44 90.5358 82.184 88.8678 82.184ZM97.9956 74.84H99.4476V73.244H97.9956V74.84ZM98.2716 77.36V82.184C98.2716 83.396 97.3236 84.392 94.7916 84.392V85.4C97.6476 85.4 99.3396 84.068 99.3396 82.04V76.4H94.7916V77.36H98.2716ZM101.663 83.888H108.083V83H101.663V83.888ZM109.375 78.572V79.724L115.711 83.048V81.692L110.803 79.148L115.711 76.604V75.248L109.375 78.572ZM120.099 83.12C122.079 83.12 123.243 81.764 123.243 79.496C123.243 77.468 122.175 76.28 120.339 76.28C118.371 76.28 117.195 77.636 117.195 79.904C117.195 81.932 118.263 83.12 120.099 83.12ZM120.219 81.728C119.151 81.728 118.779 81.2 118.779 79.7C118.779 78.2 119.151 77.672 120.219 77.672C121.287 77.672 121.659 78.2 121.659 79.7C121.659 81.2 121.287 81.728 120.219 81.728ZM128.411 76.28C127.607 76.28 127.007 76.628 126.587 77.252V74.12H125.075V82.88C125.747 83.036 126.551 83.12 127.199 83.12C129.659 83.12 130.871 81.812 130.871 79.592C130.871 77.552 129.971 76.28 128.411 76.28ZM127.247 81.776C127.007 81.776 126.791 81.764 126.587 81.728V79.676C126.587 78.188 126.983 77.648 127.955 77.648C128.939 77.648 129.299 78.236 129.299 79.64C129.299 81.212 128.747 81.776 127.247 81.776ZM136.17 74.84H137.934V72.956H136.17V74.84ZM136.362 77.744V82.124C136.362 83.324 135.474 84.056 133.074 84.056V85.424C136.098 85.424 137.886 84.068 137.886 81.932V76.4H133.074V77.744H136.362ZM146.294 79.52C146.294 77.48 145.346 76.28 143.438 76.28C141.35 76.28 140.222 77.732 140.222 79.916C140.222 81.956 141.338 83.12 143.282 83.12C144.11 83.12 145.034 82.916 145.766 82.532V81.176C145.094 81.524 144.242 81.74 143.474 81.74C142.466 81.74 141.95 81.344 141.83 80.264H146.27C146.282 80.024 146.294 79.796 146.294 79.52ZM143.342 77.66C144.242 77.66 144.602 78.032 144.698 79.088H141.83C141.95 78.044 142.406 77.66 143.342 77.66ZM153.898 78.956C153.898 77.324 152.854 76.28 151.126 76.28C149.122 76.28 147.97 77.624 147.97 79.88C147.97 81.92 149.086 83.12 151.078 83.12C151.966 83.12 152.782 82.892 153.49 82.46V81.044C152.746 81.512 151.966 81.728 151.21 81.728C149.986 81.728 149.554 81.176 149.554 79.7C149.554 78.2 149.95 77.648 151.078 77.648C152.002 77.648 152.362 77.996 152.362 78.956H153.898ZM161.262 76.4H158.502V74.924H157.266L156.99 76.4L155.61 76.7V77.696H156.99V80.756C156.99 82.076 157.818 83.12 159.582 83.12C160.134 83.12 160.734 83.012 161.262 82.832V81.452C160.782 81.632 160.278 81.728 159.822 81.728C158.85 81.728 158.502 81.332 158.502 80.54V77.696H161.262V76.4ZM173.373 72.956V74.84H175.149V72.956H173.373ZM175.089 76.4H171.657V77.744H173.577V81.656H171.261V83H176.853V81.656H175.089V76.4ZM182.957 77.276C182.537 76.64 181.889 76.28 181.085 76.28C179.525 76.28 178.601 77.576 178.601 79.76C178.601 81.872 179.525 83.12 181.085 83.12C181.961 83.12 182.645 82.7 183.065 81.896L183.269 83H184.469V74.12H182.957V77.276ZM181.553 81.752C180.545 81.752 180.173 81.188 180.173 79.64C180.173 78.188 180.545 77.648 181.553 77.648C182.573 77.648 182.957 78.212 182.957 79.76C182.957 81.212 182.573 81.752 181.553 81.752ZM186.133 76.604L191.041 79.148L186.133 81.692V83.048L192.469 79.724V78.572L186.133 75.248V76.604ZM196.149 83H197.805V81.224H196.149V83ZM205.001 76.28C204.065 76.28 203.381 76.712 202.961 77.528L202.781 76.4H201.965V85.28H203.045V82.076C203.465 82.76 204.137 83.12 205.001 83.12C206.597 83.12 207.509 81.848 207.509 79.64C207.509 77.492 206.597 76.28 205.001 76.28ZM204.713 82.16C203.501 82.16 203.045 81.44 203.045 79.64C203.045 77.9 203.501 77.24 204.713 77.24C205.925 77.24 206.393 77.96 206.393 79.76C206.393 81.5 205.925 82.16 204.713 82.16ZM213.996 82.124C213 82.124 212.556 81.476 212.556 80.276V74.12H209.136V75.08H211.476V80.372C211.476 82.22 212.328 83.12 213.804 83.12C214.404 83.12 214.98 82.976 215.52 82.712V81.668C215.04 81.968 214.5 82.124 213.996 82.124ZM220.004 82.376L218.108 76.4H216.932L219.188 83H219.764C219.44 83.936 218.72 84.392 217.34 84.392V85.4C219.128 85.4 220.244 84.692 220.772 83.144L223.076 76.4H221.9L220.004 82.376Z" fill="#1D1D1F"/>
<path d="M61.5 74.5V86.5C61.5 87.0523 61.0523 87.5 60.5 87.5H49.5C48.9477 87.5 48.5 87.0523 48.5 86.5V71.5C48.5 70.9477 48.9477 70.5 49.5 70.5H57M61.5 74.5L57 70.5M61.5 74.5H58C57.4477 74.5 57 74.0523 57 73.5V70.5" stroke="#1D1D1F"/>
<path d="M67.5 72.5V84.5C67.5 85.0523 67.0523 85.5 66.5 85.5H62M67.5 72.5L63 68.5M67.5 72.5H64C63.4477 72.5 63 72.0523 63 71.5V68.5M63 68.5H55.5C54.9477 68.5 54.5 68.9477 54.5 69.5V71" stroke="#1D1D1F"/>
<path d="M119.672 228.572V229.724L126.008 233.048V231.692L121.1 229.148L126.008 226.604V225.248L119.672 228.572ZM129.94 222.956V224.84H131.716V222.956H129.94ZM131.656 226.4H128.224V227.744H130.144V231.656H127.828V233H133.42V231.656H131.656V226.4ZM140.04 226.28C139.464 226.28 138.996 226.592 138.672 227.156C138.48 226.568 138.132 226.28 137.688 226.28C137.172 226.28 136.692 226.64 136.332 227.324L136.116 226.4H135V233H136.416V228.284C136.632 227.804 136.872 227.612 137.1 227.612C137.424 227.612 137.58 227.948 137.58 228.608V233H138.828V228.356C138.828 228.236 138.828 228.116 138.816 227.996C138.984 227.696 139.176 227.576 139.428 227.576C139.86 227.576 139.992 227.924 139.992 228.608V233H141.408V228.356C141.408 226.952 140.928 226.28 140.04 226.28ZM148.531 231.116V228.512C148.531 227.144 147.619 226.28 146.023 226.28C145.303 226.28 144.439 226.46 143.575 226.772V228.14C144.343 227.78 145.003 227.624 145.747 227.624C146.611 227.624 147.007 227.972 147.007 228.764V228.872C144.043 228.896 142.927 229.784 142.927 231.26C142.927 232.412 143.647 233.12 144.991 233.12C145.999 233.12 146.707 232.724 147.175 231.932L147.379 233H148.879L148.531 231.116ZM145.459 231.764C144.787 231.764 144.511 231.476 144.511 230.984C144.511 230.204 145.183 229.868 147.007 229.856V230.3C147.007 231.2 146.395 231.764 145.459 231.764ZM152.835 230.228C153.015 230.24 153.207 230.252 153.411 230.252C155.283 230.252 156.327 229.508 156.327 228.188C156.327 227.624 156.123 227.18 155.739 226.856L156.915 225.236H155.295L154.923 226.436C154.551 226.34 154.131 226.28 153.639 226.28C151.767 226.28 150.723 227.036 150.723 228.38C150.723 229.16 151.119 229.712 151.875 230.012L151.251 231.68L152.151 232.496C153.387 232.496 155.307 232.556 155.307 233.228C155.307 233.684 154.455 233.996 150.591 234.008V235.424C155.019 235.424 156.891 234.692 156.891 233.228C156.891 231.92 155.415 231.428 152.703 231.368L152.835 230.228ZM153.531 227.516C154.455 227.516 154.827 227.732 154.827 228.26C154.827 228.788 154.455 229.004 153.531 229.004C152.595 229.004 152.223 228.788 152.223 228.26C152.223 227.732 152.595 227.516 153.531 227.516ZM164.267 229.52C164.267 227.48 163.319 226.28 161.411 226.28C159.323 226.28 158.195 227.732 158.195 229.916C158.195 231.956 159.311 233.12 161.255 233.12C162.083 233.12 163.007 232.916 163.739 232.532V231.176C163.067 231.524 162.215 231.74 161.447 231.74C160.439 231.74 159.923 231.344 159.803 230.264H164.243C164.255 230.024 164.267 229.796 164.267 229.52ZM161.315 227.66C162.215 227.66 162.575 228.032 162.671 229.088H159.803C159.923 228.044 160.379 227.66 161.315 227.66ZM175.994 222.956V224.84H177.77V222.956H175.994ZM177.71 226.4H174.278V227.744H176.198V231.656H173.882V233H179.474V231.656H177.71V226.4ZM185.578 227.276C185.158 226.64 184.51 226.28 183.706 226.28C182.146 226.28 181.222 227.576 181.222 229.76C181.222 231.872 182.146 233.12 183.706 233.12C184.582 233.12 185.266 232.7 185.686 231.896L185.89 233H187.09V224.12H185.578V227.276ZM184.174 231.752C183.166 231.752 182.794 231.188 182.794 229.64C182.794 228.188 183.166 227.648 184.174 227.648C185.194 227.648 185.578 228.212 185.578 229.76C185.578 231.212 185.194 231.752 184.174 231.752ZM188.754 226.604L193.662 229.148L188.754 231.692V233.048L195.09 229.724V228.572L188.754 225.248V226.604ZM198.77 233H200.426V231.224H198.77V233ZM207.622 226.28C206.686 226.28 206.002 226.712 205.582 227.528L205.402 226.4H204.586V235.28H205.666V232.076C206.086 232.76 206.758 233.12 207.622 233.12C209.218 233.12 210.13 231.848 210.13 229.64C210.13 227.492 209.218 226.28 207.622 226.28ZM207.334 232.16C206.122 232.16 205.666 231.44 205.666 229.64C205.666 227.9 206.122 227.24 207.334 227.24C208.546 227.24 209.014 227.96 209.014 229.76C209.014 231.5 208.546 232.16 207.334 232.16ZM215.861 226.28C214.817 226.28 213.977 226.868 213.305 227.948L213.101 226.4H212.297V233H213.365V228.728C214.253 227.6 214.805 227.204 215.513 227.204C216.281 227.204 216.593 227.624 216.593 228.416V233H217.661V228.272C217.661 226.928 216.977 226.28 215.861 226.28ZM221.737 230.192C221.965 230.228 222.229 230.252 222.505 230.252C224.257 230.252 225.289 229.484 225.289 228.188C225.289 227.6 225.061 227.132 224.629 226.796L225.757 225.164H224.509L224.041 226.484C223.669 226.352 223.225 226.28 222.721 226.28C220.957 226.28 219.925 227.06 219.925 228.38C219.925 229.148 220.333 229.712 221.065 230.012L220.477 231.716L221.101 232.352C222.985 232.352 224.761 232.52 224.761 233.312C224.761 233.984 223.633 234.38 219.757 234.392V235.4C224.089 235.4 225.889 234.692 225.889 233.264C225.889 231.944 224.365 231.488 221.533 231.452L221.737 230.192ZM222.613 227.276C223.705 227.276 224.173 227.564 224.173 228.26C224.173 228.944 223.693 229.244 222.613 229.244C221.521 229.244 221.053 228.944 221.053 228.26C221.053 227.564 221.521 227.276 222.613 227.276Z" fill="#1D1D1F"/>
<path d="M28.5 137.5V133.5C28.5 132.948 28.9477 132.5 29.5 132.5H32.5C32.8148 132.5 33.1111 132.648 33.3 132.9L34.2 134.1C34.3889 134.352 34.6852 134.5 35 134.5H44.5C45.0523 134.5 45.5 134.948 45.5 135.5V137.5M28.5 137.5V146.5C28.5 147.052 28.9477 147.5 29.5 147.5H44.5C45.0523 147.5 45.5 147.052 45.5 146.5V137.5M28.5 137.5H45.5" stroke="#1D1D1F"/>
<path d="M30.5 132.5V129.5C30.5 128.948 30.9477 128.5 31.5 128.5H34.5C34.8148 128.5 35.1111 128.648 35.3 128.9L36.2 130.1C36.3889 130.352 36.6852 130.5 37 130.5H46.5C47.0523 130.5 47.5 130.948 47.5 131.5V132.5V142.5C47.5 143.052 47.0523 143.5 46.5 143.5H45.5" stroke="#1D1D1F"/>
<path d="M58.672 138.572V139.724L65.008 143.048V141.692L60.1 139.148L65.008 136.604V135.248L58.672 138.572ZM72.5158 136.016C71.4598 136.016 70.3198 136.664 69.6118 137.648L69.3838 136.4H66.9358V137.744H68.1838V141.656H66.5398V143H72.1318V141.656H69.6958V138.608C70.4758 138.02 71.3758 137.708 72.5158 137.708V136.016ZM80.2396 139.52C80.2396 137.48 79.2916 136.28 77.3836 136.28C75.2956 136.28 74.1676 137.732 74.1676 139.916C74.1676 141.956 75.2836 143.12 77.2276 143.12C78.0556 143.12 78.9796 142.916 79.7116 142.532V141.176C79.0396 141.524 78.1876 141.74 77.4196 141.74C76.4116 141.74 75.8956 141.344 75.7756 140.264H80.2156C80.2276 140.024 80.2396 139.796 80.2396 139.52ZM77.2876 137.66C78.1876 137.66 78.5476 138.032 78.6436 139.088H75.7756C75.8956 138.044 76.3516 137.66 77.2876 137.66ZM87.5313 141.116V138.512C87.5313 137.144 86.6193 136.28 85.0233 136.28C84.3033 136.28 83.4393 136.46 82.5753 136.772V138.14C83.3433 137.78 84.0033 137.624 84.7473 137.624C85.6113 137.624 86.0073 137.972 86.0073 138.764V138.872C83.0433 138.896 81.9273 139.784 81.9273 141.26C81.9273 142.412 82.6473 143.12 83.9913 143.12C84.9993 143.12 85.7073 142.724 86.1753 141.932L86.3793 143H87.8793L87.5313 141.116ZM84.4593 141.764C83.7873 141.764 83.5113 141.476 83.5113 140.984C83.5113 140.204 84.1833 139.868 86.0073 139.856V140.3C86.0073 141.2 85.3953 141.764 84.4593 141.764ZM94.2111 141.728C93.3711 141.728 92.9871 141.224 92.9871 140.276V134.12H89.4471V135.464H91.4751V140.372C91.4751 142.16 92.3391 143.12 93.8991 143.12C94.5111 143.12 95.0991 142.976 95.6391 142.724V141.32C95.2071 141.572 94.6911 141.728 94.2111 141.728ZM100.939 145.28V134.12H99.4989V145.28H100.939ZM105.267 142.604C106.071 142.964 106.971 143.12 107.787 143.12C109.515 143.12 110.547 142.364 110.547 141.068C110.547 138.596 106.803 139.58 106.803 138.296C106.803 137.924 107.103 137.672 108.039 137.672C108.675 137.672 109.443 137.792 110.283 138.128V136.712C109.491 136.424 108.627 136.28 107.895 136.28C106.239 136.28 105.243 137.072 105.243 138.368C105.243 140.804 108.963 139.928 108.963 141.128C108.963 141.488 108.639 141.728 107.643 141.728C106.839 141.728 106.071 141.56 105.267 141.212V142.604ZM114.994 132.956V134.84H116.77V132.956H114.994ZM116.71 136.4H113.278V137.744H115.198V141.656H112.882V143H118.474V141.656H116.71V136.4ZM125.094 136.28C124.518 136.28 124.05 136.592 123.726 137.156C123.534 136.568 123.186 136.28 122.742 136.28C122.226 136.28 121.746 136.64 121.386 137.324L121.17 136.4H120.054V143H121.47V138.284C121.686 137.804 121.926 137.612 122.154 137.612C122.478 137.612 122.634 137.948 122.634 138.608V143H123.882V138.356C123.882 138.236 123.882 138.116 123.87 137.996C124.038 137.696 124.23 137.576 124.482 137.576C124.914 137.576 125.046 137.924 125.046 138.608V143H126.462V138.356C126.462 136.952 125.982 136.28 125.094 136.28ZM127.754 136.604L132.662 139.148L127.754 141.692V143.048L134.09 139.724V138.572L127.754 135.248V136.604ZM135.394 143.888H141.814V143H135.394V143.888ZM143.106 138.572V139.724L149.442 143.048V141.692L144.534 139.148L149.442 136.604V135.248L143.106 138.572ZM156.925 138.956C156.925 137.324 155.881 136.28 154.153 136.28C152.149 136.28 150.997 137.624 150.997 139.88C150.997 141.92 152.113 143.12 154.105 143.12C154.993 143.12 155.809 142.892 156.517 142.46V141.044C155.773 141.512 154.993 141.728 154.237 141.728C153.013 141.728 152.581 141.176 152.581 139.7C152.581 138.2 152.977 137.648 154.105 137.648C155.029 137.648 155.389 137.996 155.389 138.956H156.925ZM164.289 141.116V138.512C164.289 137.144 163.377 136.28 161.781 136.28C161.061 136.28 160.197 136.46 159.333 136.772V138.14C160.101 137.78 160.761 137.624 161.505 137.624C162.369 137.624 162.765 137.972 162.765 138.764V138.872C159.801 138.896 158.685 139.784 158.685 141.26C158.685 142.412 159.405 143.12 160.749 143.12C161.757 143.12 162.465 142.724 162.933 141.932L163.137 143H164.637L164.289 141.116ZM161.217 141.764C160.545 141.764 160.269 141.476 160.269 140.984C160.269 140.204 160.941 139.868 162.765 139.856V140.3C162.765 141.2 162.153 141.764 161.217 141.764ZM171.149 136.28C170.573 136.28 170.105 136.592 169.781 137.156C169.589 136.568 169.241 136.28 168.797 136.28C168.281 136.28 167.801 136.64 167.441 137.324L167.225 136.4H166.109V143H167.525V138.284C167.741 137.804 167.981 137.612 168.209 137.612C168.533 137.612 168.689 137.948 168.689 138.608V143H169.937V138.356C169.937 138.236 169.937 138.116 169.925 137.996C170.093 137.696 170.285 137.576 170.537 137.576C170.969 137.576 171.101 137.924 171.101 138.608V143H172.517V138.356C172.517 136.952 172.037 136.28 171.149 136.28ZM180.025 139.52C180.025 137.48 179.077 136.28 177.169 136.28C175.081 136.28 173.953 137.732 173.953 139.916C173.953 141.956 175.069 143.12 177.013 143.12C177.841 143.12 178.765 142.916 179.497 142.532V141.176C178.825 141.524 177.973 141.74 177.205 141.74C176.197 141.74 175.681 141.344 175.561 140.264H180.001C180.013 140.024 180.025 139.796 180.025 139.52ZM177.073 137.66C177.973 137.66 178.333 138.032 178.429 139.088H175.561C175.681 138.044 176.137 137.66 177.073 137.66ZM187.653 136.016C186.597 136.016 185.457 136.664 184.749 137.648L184.521 136.4H182.073V137.744H183.321V141.656H181.677V143H187.269V141.656H184.833V138.608C185.613 138.02 186.513 137.708 187.653 137.708V136.016ZM194.992 141.116V138.512C194.992 137.144 194.08 136.28 192.484 136.28C191.764 136.28 190.9 136.46 190.036 136.772V138.14C190.804 137.78 191.464 137.624 192.208 137.624C193.072 137.624 193.468 137.972 193.468 138.764V138.872C190.504 138.896 189.388 139.784 189.388 141.26C189.388 142.412 190.108 143.12 191.452 143.12C192.46 143.12 193.168 142.724 193.636 141.932L193.84 143H195.34L194.992 141.116ZM191.92 141.764C191.248 141.764 190.972 141.476 190.972 140.984C190.972 140.204 191.644 139.868 193.468 139.856V140.3C193.468 141.2 192.856 141.764 191.92 141.764ZM196.836 136.604L201.744 139.148L196.836 141.692V143.048L203.172 139.724V138.572L196.836 135.248V136.604Z" fill="#1D1D1F"/>
<path d="M48.5 167.5V163.5C48.5 162.948 48.9477 162.5 49.5 162.5H52.5C52.8148 162.5 53.1111 162.648 53.3 162.9L54.2 164.1C54.3889 164.352 54.6852 164.5 55 164.5H64.5C65.0523 164.5 65.5 164.948 65.5 165.5V167.5M48.5 167.5V176.5C48.5 177.052 48.9477 177.5 49.5 177.5H64.5C65.0523 177.5 65.5 177.052 65.5 176.5V167.5M48.5 167.5H65.5" stroke="#1D1D1F"/>
<path d="M50.5 162.5V159.5C50.5 158.948 50.9477 158.5 51.5 158.5H54.5C54.8148 158.5 55.1111 158.648 55.3 158.9L56.2 160.1C56.3889 160.352 56.6852 160.5 57 160.5H66.5C67.0523 160.5 67.5 160.948 67.5 161.5V162.5V172.5C67.5 173.052 67.0523 173.5 66.5 173.5H65.5" stroke="#1D1D1F"/>
<path d="M78.672 168.572V169.724L85.008 173.048V171.692L80.1 169.148L85.008 166.604V165.248L78.672 168.572ZM86.8878 172.604C87.6918 172.964 88.5918 173.12 89.4078 173.12C91.1358 173.12 92.1678 172.364 92.1678 171.068C92.1678 168.596 88.4238 169.58 88.4238 168.296C88.4238 167.924 88.7238 167.672 89.6598 167.672C90.2958 167.672 91.0638 167.792 91.9038 168.128V166.712C91.1118 166.424 90.2478 166.28 89.5158 166.28C87.8598 166.28 86.8638 167.072 86.8638 168.368C86.8638 170.804 90.5838 169.928 90.5838 171.128C90.5838 171.488 90.2598 171.728 89.2638 171.728C88.4598 171.728 87.6918 171.56 86.8878 171.212V172.604ZM100.168 168.956C100.168 167.324 99.1236 166.28 97.3956 166.28C95.3916 166.28 94.2396 167.624 94.2396 169.88C94.2396 171.92 95.3556 173.12 97.3476 173.12C98.2356 173.12 99.0516 172.892 99.7596 172.46V171.044C99.0156 171.512 98.2356 171.728 97.4796 171.728C96.2556 171.728 95.8236 171.176 95.8236 169.7C95.8236 168.2 96.2196 167.648 97.3476 167.648C98.2716 167.648 98.6316 167.996 98.6316 168.956H100.168ZM107.915 169.52C107.915 167.48 106.967 166.28 105.059 166.28C102.971 166.28 101.843 167.732 101.843 169.916C101.843 171.956 102.959 173.12 104.903 173.12C105.731 173.12 106.655 172.916 107.387 172.532V171.176C106.715 171.524 105.863 171.74 105.095 171.74C104.087 171.74 103.571 171.344 103.451 170.264H107.891C107.903 170.024 107.915 169.796 107.915 169.52ZM104.963 167.66C105.863 167.66 106.223 168.032 106.319 169.088H103.451C103.571 168.044 104.027 167.66 104.963 167.66ZM113.431 166.28C112.519 166.28 111.751 166.76 111.151 167.6L110.959 166.4H109.747V173H111.271V168.632C111.895 167.864 112.315 167.576 112.915 167.576C113.587 167.576 113.863 167.936 113.863 168.644V173H115.375V168.392C115.375 167 114.643 166.28 113.431 166.28ZM123.267 169.52C123.267 167.48 122.319 166.28 120.411 166.28C118.323 166.28 117.195 167.732 117.195 169.916C117.195 171.956 118.311 173.12 120.255 173.12C121.083 173.12 122.007 172.916 122.739 172.532V171.176C122.067 171.524 121.215 171.74 120.447 171.74C119.439 171.74 118.923 171.344 118.803 170.264H123.243C123.255 170.024 123.267 169.796 123.267 169.52ZM120.315 167.66C121.215 167.66 121.575 168.032 121.671 169.088H118.803C118.923 168.044 119.379 167.66 120.315 167.66ZM134.994 162.956V164.84H136.77V162.956H134.994ZM136.71 166.4H133.278V167.744H135.198V171.656H132.882V173H138.474V171.656H136.71V166.4ZM144.578 167.276C144.158 166.64 143.51 166.28 142.706 166.28C141.146 166.28 140.222 167.576 140.222 169.76C140.222 171.872 141.146 173.12 142.706 173.12C143.582 173.12 144.266 172.7 144.686 171.896L144.89 173H146.09V164.12H144.578V167.276ZM143.174 171.752C142.166 171.752 141.794 171.188 141.794 169.64C141.794 168.188 142.166 167.648 143.174 167.648C144.194 167.648 144.578 168.212 144.578 169.76C144.578 171.212 144.194 171.752 143.174 171.752ZM147.754 166.604L152.662 169.148L147.754 171.692V173.048L154.09 169.724V168.572L147.754 165.248V166.604Z" fill="#1D1D1F"/>
<path d="M17.5 28V140" stroke="#1D1D1F"/>
<path d="M57.5 180L57.5 348" stroke="#1D1D1F"/>
<path d="M36.5 58V108" stroke="#1D1D1F"/>
<path d="M18 139.5H24" stroke="#1D1D1F"/>
<path d="M36 107.5H42" stroke="#1D1D1F"/>
<path d="M36 77.5H42" stroke="#1D1D1F"/>
<path d="M57 197.5H63" stroke="#1D1D1F"/>
<path d="M57 257.5H63" stroke="#1D1D1F"/>
<path d="M57 287.5H63" stroke="#1D1D1F"/>
<path d="M57 317.5H63" stroke="#1D1D1F"/>
<path d="M57 347.5H63" stroke="#1D1D1F"/>
<path d="M36.5 150L36.5 169" stroke="#1D1D1F"/>
<path d="M36 169.5H42" stroke="#1D1D1F"/>
<path d="M78.5 208L78.5 229" stroke="#1D1D1F"/>
<path d="M78 229.5H84" stroke="#1D1D1F"/>
<path d="M18 47.5H24" stroke="#1D1D1F"/>
<path d="M101.5 225.5V237.5C101.5 238.052 101.052 238.5 100.5 238.5H89.5C88.9477 238.5 88.5 238.052 88.5 237.5V222.5C88.5 221.948 88.9477 221.5 89.5 221.5H97M101.5 225.5L97 221.5M101.5 225.5H98C97.4477 225.5 97 225.052 97 224.5V221.5" stroke="#1D1D1F"/>
<path d="M107.5 223.5V235.5C107.5 236.052 107.052 236.5 106.5 236.5H102M107.5 223.5L103 219.5M107.5 223.5H104C103.448 223.5 103 223.052 103 222.5V219.5M103 219.5H95.5C94.9477 219.5 94.5 219.948 94.5 220.5V222" stroke="#1D1D1F"/>
</svg>
